<?xml version="1.0" standalone="no"?>
<!DOCTYPE svg PUBLIC "-//W3C//DTD SVG 20010904//EN"
 "http://www.w3.org/TR/2001/REC-SVG-20010904/DTD/svg10.dtd">
<svg version="1.0" xmlns="http://www.w3.org/2000/svg"
 width="1024.000000pt" height="1024.000000pt" viewBox="0 0 1024.000000 1024.000000"
 preserveAspectRatio="xMidYMid meet">
<metadata>
Created by potrace 1.14, written by Peter Selinger 2001-2017
</metadata>
<g transform="translate(0.000000,1024.000000) scale(0.100000,-0.100000)"
fill="#000000" stroke="none">
<path d="M0 5475 l0 -4765 33 -1 32 -1 -32 -10 -33 -11 0 -343 0 -344 5120 0
5120 0 0 5120 0 5120 -5120 0 -5120 0 0 -4765z m3880 4086 c0 -18 -4 -14 -24
29 l-17 35 20 -25 c11 -14 21 -31 21 -39z m55 28 c10 -30 0 -33 -13 -4 -6 14
-7 25 -2 25 5 0 12 -9 15 -21z m2415 -3 c0 -2 -8 -10 -17 -17 -16 -13 -17 -12
-4 4 13 16 21 21 21 13z m-2825 -48 l40 -41 -47 38 c-27 22 -48 41 -48 42 0
12 22 -3 55 -39z m3215 39 c0 -2 -12 -14 -27 -28 l-28 -24 24 28 c23 25 31 32
31 24z m-3075 -17 c3 -5 1 -10 -4 -10 -6 0 -11 5 -11 10 0 6 2 10 4 10 3 0 8
-4 11 -10z m245 -16 c0 -8 -4 -12 -10 -9 -5 3 -10 13 -10 21 0 8 5 12 10 9 6
-3 10 -13 10 -21z m2698 14 c-3 -14 -58 -41 -66 -34 -3 4 56 46 66 46 1 0 1
-6 0 -12z m-2957 -38 l24 -21 -32 16 c-32 15 -42 25 -24 25 5 0 19 -9 32 -20z
m99 4 c0 -2 -7 -4 -15 -4 -8 0 -15 4 -15 10 0 5 7 7 15 4 8 -4 15 -8 15 -10z
m2760 -1 c0 -3 -6 -3 -12 0 -7 2 -22 0 -33 -5 -19 -9 -19 -8 -2 6 17 13 47 12
47 -1z m-3030 -13 c0 -5 -2 -10 -4 -10 -3 0 -8 5 -11 10 -3 6 -1 10 4 10 6 0
11 -4 11 -10z m3050 -15 c-7 -9 -15 -13 -19 -10 -3 3 1 10 9 15 21 14 24 12
10 -5z m-319 -24 c-7 -5 -11 -13 -7 -19 3 -6 2 -13 -3 -16 -5 -3 -12 2 -16 11
-3 10 -1 19 4 21 6 2 11 11 11 20 0 13 3 13 12 4 10 -10 10 -15 -1 -21z
m-2148 -47 c-3 -8 -12 -14 -21 -12 -18 4 -29 28 -12 28 6 0 8 -4 5 -10 -3 -5
-1 -10 5 -10 7 0 9 7 6 15 -18 44 -17 50 3 27 11 -13 17 -30 14 -38z m2113 22
c3 -8 4 -23 2 -33 -3 -13 -7 -9 -15 15 -12 31 1 48 13 18z m-2810 -58 c4 -6
-2 -7 -17 -3 -35 10 -45 23 -15 18 15 -3 29 -10 32 -15z m758 -177 c-6 -44 -4
-50 16 -61 12 -6 20 -14 17 -17 -3 -2 -14 2 -26 9 -21 13 -27 49 -15 96 11 38
15 24 8 -27z m2885 22 c0 -11 -3 -13 -6 -5 -2 6 -10 9 -15 6 -7 -4 -8 -2 -4 4
11 18 26 14 25 -5z m-880 -43 c1 -13 0 -13 -9 0 -5 8 -9 24 -9 35 l0 20 9 -20
c5 -11 9 -27 9 -35z m-2914 22 c-3 -3 -11 0 -18 7 -9 10 -8 11 6 5 10 -3 15
-9 12 -12z m0 -42 c12 -15 14 -20 4 -12 -9 6 -19 9 -22 5 -4 -3 -7 4 -7 17 0
13 1 21 3 19 1 -2 11 -15 22 -29z m3792 6 c-4 -9 2 -17 14 -21 23 -8 26 -35 3
-35 -10 0 -14 6 -11 14 3 8 -1 17 -8 20 -13 5 -11 36 2 36 3 0 3 -7 0 -14z
m-887 -24 c0 -4 -10 -13 -22 -21 -23 -14 -23 -14 -4 8 20 22 26 25 26 13z
m-2940 -20 c0 -14 -11 -21 -26 -15 -8 3 -11 9 -8 14 7 11 34 12 34 1z m1868
-41 c9 1 24 -1 32 -4 43 -16 71 -14 86 7 11 14 18 17 21 9 7 -19 21 -16 26 5
3 9 5 3 6 -13 1 -24 6 -31 21 -31 11 0 20 6 20 13 0 7 5 13 10 13 6 0 10 -6
10 -12 0 -9 4 -8 11 2 8 12 12 12 16 2 4 -10 8 -9 19 5 13 17 13 17 14 -2 1
-18 2 -17 16 5 l15 25 -7 -25 -6 -25 26 24 c14 14 26 19 26 13 0 -6 -4 -14
-10 -17 -5 -3 -10 -11 -10 -16 0 -6 6 -7 12 -3 11 7 50 9 63 4 13 -5 52 -3 62
3 7 4 14 -1 18 -14 l7 -21 15 22 c15 21 16 21 35 3 15 -13 22 -15 25 -5 3 6 9
12 15 12 6 0 8 -7 5 -14 -7 -16 17 -12 42 8 12 9 13 6 7 -16 -8 -33 4 -36 29
-8 23 26 31 25 38 -2 6 -21 7 -21 27 -3 22 20 24 17 10 -19 -9 -24 -7 -25 21
-21 24 3 29 1 25 -12 -4 -11 -2 -14 9 -9 10 4 15 -1 15 -15 0 -14 5 -19 14
-16 8 3 16 -2 19 -14 5 -18 8 -19 29 -8 21 11 22 11 10 -4 -17 -20 -6 -41 17
-32 13 5 14 4 4 -6 -18 -18 -16 -29 5 -29 9 0 24 -5 32 -10 12 -8 11 -14 -9
-41 -13 -17 -19 -29 -12 -25 6 4 11 2 11 -4 0 -6 3 -9 8 -7 4 3 17 1 29 -4 16
-6 21 -13 16 -25 -5 -13 -3 -15 8 -9 12 7 12 6 1 -7 -17 -21 -5 -53 14 -37 11
9 14 8 14 -6 0 -12 5 -15 18 -11 12 4 10 0 -7 -14 -27 -23 -15 -27 15 -5 26
20 38 19 29 -2 -4 -10 -8 -24 -9 -31 -3 -19 -26 -32 -56 -32 -16 0 -21 -3 -14
-10 7 -7 24 -6 52 4 51 18 59 0 12 -28 -42 -24 -28 -38 22 -20 43 15 60 12 40
-8 -20 -20 -14 -31 13 -24 32 8 34 -16 3 -32 -22 -10 -21 -11 10 -11 17 -1 32
4 32 9 0 6 6 10 13 10 6 0 -4 -14 -23 -31 l-35 -30 33 6 c41 8 44 -13 5 -37
-30 -19 -28 -20 50 -20 26 0 47 -2 47 -4 0 -3 -16 -12 -36 -20 -20 -8 -34 -17
-31 -20 3 -3 23 4 46 16 23 11 41 16 41 10 0 -6 -7 -13 -15 -16 -8 -4 -15 -15
-15 -26 0 -15 5 -19 20 -15 26 7 55 -16 47 -37 -6 -14 -3 -16 16 -11 21 6 21
6 -3 -14 -21 -17 -22 -21 -7 -21 10 0 29 12 42 26 14 15 25 22 25 16 0 -16
-50 -52 -71 -52 -23 0 -25 -16 -4 -24 19 -7 76 3 94 18 11 8 13 8 8 -1 -4 -6
-1 -13 5 -16 7 -2 -3 -11 -23 -20 -51 -21 -61 -45 -16 -38 4 0 7 -4 7 -9 0 -6
-6 -10 -12 -9 -25 3 -38 -1 -38 -12 0 -5 5 -7 11 -3 6 3 21 -4 33 -17 11 -14
18 -20 14 -15 -13 16 -9 26 7 20 8 -4 17 1 21 10 3 9 14 16 23 16 14 -1 13 -3
-3 -15 -14 -11 -17 -21 -11 -42 l7 -28 13 33 c16 36 31 42 31 13 0 -11 -3 -18
-7 -15 -4 2 -9 -3 -13 -11 -4 -11 2 -15 23 -15 16 0 35 -7 42 -16 11 -13 10
-18 -5 -26 -15 -8 -16 -12 -5 -19 11 -7 10 -9 -5 -9 -28 0 -13 -11 26 -19 l33
-8 -37 -4 c-20 -3 -34 -1 -32 3 3 4 0 8 -5 8 -6 0 -11 -7 -11 -15 0 -8 7 -15
15 -15 8 0 15 -7 15 -15 0 -8 9 -19 20 -25 11 -6 20 -7 20 -2 0 5 7 9 15 9 8
0 15 -5 15 -11 0 -6 5 -5 12 2 7 7 27 12 45 12 19 0 36 6 41 16 6 10 14 14 22
9 10 -6 9 -10 -4 -17 -9 -5 -14 -13 -11 -19 4 -5 1 -9 -6 -9 -7 0 -5 -8 7 -22
17 -19 17 -21 2 -15 -25 9 -48 -2 -41 -19 3 -8 -1 -14 -10 -14 -8 0 -20 -6
-26 -13 -8 -11 -6 -16 12 -25 35 -18 129 -42 138 -36 5 3 9 3 9 0 0 -2 2 -11
5 -19 5 -10 -1 -13 -24 -9 -27 4 -30 2 -26 -18 2 -12 10 -28 16 -36 24 -29 -1
-25 -40 7 -35 28 -45 31 -72 23 -31 -9 -40 -25 -18 -33 8 -2 9 1 3 10 -6 12
-5 12 8 1 11 -9 18 -10 23 -2 7 11 36 14 34 3 -4 -26 2 -34 22 -28 14 5 19 3
15 -3 -3 -6 -2 -13 4 -17 17 -10 11 -25 -7 -19 -17 5 -17 5 0 -9 9 -8 17 -21
17 -29 0 -8 5 -19 12 -26 9 -9 9 -12 0 -12 -6 0 -16 8 -21 18 -6 9 -11 12 -11
6 0 -6 8 -18 18 -27 22 -20 68 -27 64 -9 -1 6 3 12 9 12 8 0 10 -12 6 -34 -5
-29 -3 -34 10 -29 11 4 14 3 9 -6 -5 -7 -14 -10 -21 -7 -15 5 -59 -37 -48 -47
3 -4 22 -7 40 -7 19 0 32 -4 29 -9 -3 -5 1 -14 9 -21 8 -7 12 -16 9 -21 -3 -5
-2 -9 3 -10 43 -4 54 -7 60 -12 3 -4 -6 -7 -20 -7 -33 0 -33 -4 -2 -42 28 -33
32 -58 10 -58 -8 0 -15 7 -15 15 0 15 -40 30 -73 27 -9 0 -15 3 -12 9 4 5 20
7 37 4 27 -5 30 -4 18 10 -7 9 -22 13 -37 11 -20 -4 -23 -2 -18 15 8 24 -17
26 -36 2 -12 -15 -12 -16 4 -10 11 4 17 2 17 -8 0 -9 -9 -15 -22 -15 -17 0
-19 -3 -10 -12 20 -20 79 -36 98 -26 16 8 17 8 4 -4 -8 -7 -23 -23 -33 -35
-19 -21 -18 -22 13 -38 28 -14 40 -42 15 -33 -6 2 -9 6 -8 9 1 4 -13 3 -32 -1
-19 -4 -37 -5 -42 -1 -4 3 -2 -2 6 -11 7 -9 20 -14 29 -11 12 3 14 2 4 -4 -13
-10 -6 -46 8 -38 5 3 6 -3 3 -14 -3 -10 -14 -23 -26 -29 -21 -9 -21 -9 5 -9
15 0 25 3 22 8 -13 22 13 5 31 -19 14 -20 15 -23 3 -14 -21 17 -63 12 -63 -8
0 -11 17 -17 60 -22 82 -11 92 -18 20 -15 -56 2 -60 1 -58 -20 3 -24 -15 -25
-43 -3 -18 14 -18 13 0 -7 10 -13 22 -21 25 -18 13 7 31 -11 33 -35 2 -19 -1
-24 -14 -22 -21 3 -23 -8 -5 -27 7 -8 7 -11 1 -8 -7 4 -17 0 -24 -8 -10 -13
-9 -19 5 -35 10 -11 13 -20 7 -20 -7 0 -12 5 -12 10 0 6 -7 10 -15 10 -8 0
-12 -6 -9 -14 3 -8 1 -17 -5 -21 -6 -3 -11 -1 -11 5 0 6 -5 8 -10 5 -16 -10 0
-27 20 -22 12 3 20 -2 23 -14 3 -10 18 -26 35 -36 l29 -18 -26 -20 c-19 -14
-22 -14 -13 -3 12 15 9 19 -18 33 -26 13 -35 14 -44 4 -8 -9 -8 -10 2 -4 14 7
41 -20 42 -43 0 -9 -8 -9 -31 3 -24 13 -34 14 -45 4 -7 -6 -12 -15 -9 -19 3
-5 -1 -11 -7 -13 -9 -4 -4 -14 16 -32 31 -28 30 -43 -2 -26 -28 15 -39 14 -39
-4 0 -8 4 -12 8 -10 4 3 12 -8 17 -24 11 -32 -2 -47 -28 -31 -19 12 -40 1 -33
-17 5 -13 3 -13 -15 -2 -12 7 -25 10 -29 6 -4 -5 -2 -11 5 -16 6 -4 -6 -7 -28
-8 -22 0 -47 -6 -54 -13 -15 -12 -86 -4 -86 10 0 5 23 11 50 15 31 4 48 11 44
17 -5 7 3 9 20 6 14 -3 29 -1 32 3 3 5 0 9 -7 9 -7 0 -10 3 -6 6 3 3 14 1 23
-4 22 -12 58 3 48 20 -4 7 2 8 17 3 23 -7 24 -7 4 9 -23 17 -39 21 -30 6 4 -6
-5 -9 -19 -8 -14 1 -28 9 -31 16 -4 11 -9 11 -18 3 -10 -8 -14 -7 -14 4 0 11
8 14 27 11 36 -5 60 9 29 17 -13 4 -20 9 -16 13 4 4 -5 20 -20 36 -15 15 -23
28 -20 28 16 0 65 -59 54 -64 -9 -3 -9 -5 -1 -5 6 -1 17 6 24 14 10 12 9 20
-4 39 -15 24 -15 25 4 21 13 -2 20 2 20 11 0 16 59 56 71 48 4 -2 11 1 15 7 5
8 0 10 -17 7 -48 -10 -54 -13 -61 -28 -5 -11 -7 -9 -7 8 -1 12 -6 22 -11 22
-6 0 -8 -13 -5 -29 5 -27 3 -27 -45 20 -28 27 -50 54 -50 61 0 7 7 2 16 -10
18 -26 34 -29 34 -5 0 15 2 14 15 -3 8 -10 15 -15 15 -10 0 5 6 3 14 -3 8 -7
17 -8 20 -3 6 10 -30 46 -54 55 -12 4 -11 6 3 6 21 1 23 21 1 21 -8 0 -12 4
-9 10 10 17 -14 50 -33 44 -14 -5 -14 -4 -3 4 12 8 8 14 -20 31 -43 27 -44 27
-69 -9 -15 -21 -30 -30 -48 -30 -19 0 -23 3 -14 9 8 4 13 12 13 17 -1 5 5 9
12 9 6 0 11 -6 9 -13 -1 -8 2 -11 8 -7 8 5 8 11 0 20 -8 9 -5 14 12 18 21 6
21 7 5 19 -15 11 -12 13 22 13 21 0 37 -3 35 -7 -2 -4 1 -10 7 -14 6 -4 16 0
21 9 5 10 15 14 25 10 9 -4 1 8 -17 25 -18 18 -38 32 -44 31 -6 0 -5 -3 3 -6
8 -3 -1 -11 -24 -19 -25 -8 -44 -9 -59 -3 -19 8 -18 9 7 6 15 -3 30 0 33 4 6
10 4 10 -63 11 -43 0 -48 -2 -47 -21 0 -16 -2 -18 -13 -9 -8 6 -12 17 -9 25 3
8 2 12 -3 9 -5 -3 -19 4 -33 17 -21 20 -30 21 -88 15 -36 -4 -121 -23 -190
-42 -69 -20 -163 -41 -210 -47 -129 -17 -130 -17 -131 -42 -2 -21 -2 -21 -6 2
l-5 24 -149 -7 c-143 -6 -149 -6 -149 13 0 18 9 19 168 20 92 1 207 6 257 12
92 11 405 86 439 106 26 14 11 35 -20 27 -21 -5 -26 -2 -35 25 -6 17 -17 31
-25 31 -8 0 -11 6 -8 15 4 8 -1 17 -10 21 -9 3 -16 12 -16 19 0 7 -15 26 -32
41 -18 15 -32 31 -30 36 1 4 -5 8 -14 8 -13 0 -14 3 -5 14 9 11 9 15 -1 18
-10 4 -10 8 1 21 11 14 11 17 0 17 -12 0 -12 2 0 9 11 7 8 13 -16 28 -17 10
-28 24 -25 32 3 8 -1 12 -9 9 -15 -5 -39 14 -39 31 0 6 -4 11 -8 11 -5 0 -17
18 -27 40 -10 22 -24 40 -32 40 -16 0 -17 17 0 23 6 3 0 6 -15 6 -16 1 -28 6
-28 12 0 6 -6 9 -14 6 -8 -3 -30 -2 -48 3 -21 6 -36 6 -42 0 -17 -17 -29 -11
-15 6 12 15 11 16 -11 9 -14 -5 -35 -9 -47 -10 -11 -1 -32 -8 -45 -16 -26 -16
-65 -35 -90 -43 -20 -6 -78 -83 -78 -103 0 -7 -4 -13 -10 -13 -11 0 -9 28 5
50 8 13 7 13 -8 1 -9 -7 -15 -17 -12 -21 2 -4 -4 -15 -14 -24 -11 -10 -17 -26
-15 -39 4 -21 4 -21 -6 1 -13 30 -29 20 -22 -13 2 -14 0 -25 -7 -25 -5 0 -8
-8 -5 -17 5 -17 4 -17 -9 0 -18 22 -31 7 -22 -26 7 -22 7 -22 -9 -2 -15 18
-15 17 -1 -22 18 -53 12 -55 -15 -5 -16 28 -20 31 -16 12 5 -24 4 -24 -10 -5
-13 18 -14 17 -8 -15 4 -19 14 -45 22 -58 13 -20 13 -22 -1 -16 -9 3 -21 21
-27 40 -7 19 -16 32 -21 29 -5 -4 -9 -1 -9 6 0 7 -2 10 -5 7 -9 -8 6 -38 16
-32 5 3 6 -8 3 -24 -4 -19 -1 -32 10 -41 9 -7 13 -18 9 -24 -3 -5 -1 -7 4 -4
6 4 16 0 22 -7 21 -25 107 -39 190 -32 66 6 80 5 92 -10 12 -15 11 -16 -19 -9
-49 10 -168 -13 -199 -39 l-26 -22 -22 22 c-12 12 -45 27 -74 33 -78 17 -345
14 -415 -4 -56 -15 -93 -11 -65 6 12 7 12 10 0 21 -10 10 -12 10 -7 1 5 -9 -2
-13 -22 -13 -16 0 -32 -3 -35 -7 -9 -9 52 -45 63 -38 6 3 7 -1 4 -9 -8 -21
-13 -20 -39 4 -33 31 -145 55 -195 42 -43 -11 -54 0 -19 19 14 7 50 9 110 4
65 -5 96 -4 119 6 16 8 30 17 30 20 0 4 8 10 18 14 14 5 15 4 5 -6 -7 -7 -13
-20 -12 -28 0 -14 1 -14 6 -1 3 8 13 24 22 34 9 11 10 16 4 12 -15 -8 -18 10
-3 19 5 3 7 12 3 20 -3 8 0 15 6 15 6 0 9 13 6 33 -4 27 -4 28 4 7 l8 -25 11
28 c13 31 37 37 29 7 -3 -11 -1 -20 4 -20 9 0 10 6 14 62 l2 28 -23 -25 c-23
-25 -41 -34 -29 -15 3 6 1 10 -5 10 -6 0 -8 5 -5 10 4 6 11 8 16 5 5 -4 9 4 9
16 0 22 0 22 -20 4 -12 -10 -18 -25 -16 -32 3 -7 1 -15 -4 -18 -6 -4 -10 -16
-11 -28 -1 -20 -2 -20 -8 3 -5 14 -7 38 -5 53 2 16 -1 25 -6 22 -6 -4 -10 -13
-10 -21 0 -8 -4 -14 -10 -14 -5 0 -10 -6 -10 -14 0 -7 -7 -19 -15 -26 -12 -10
-15 -10 -15 3 0 9 5 19 10 22 18 11 8 105 -11 105 -5 0 -6 -6 -3 -14 3 -8 -1
-17 -8 -22 -7 -4 -10 -4 -6 1 4 4 -4 24 -17 44 -29 41 -32 56 -10 47 13 -4 14
-2 5 14 -6 11 -13 20 -16 20 -3 0 -3 -4 1 -9 3 -5 1 -12 -5 -16 -5 -3 -8 -24
-7 -45 4 -50 -7 -43 -23 15 -13 47 -70 119 -77 99 -2 -7 -17 0 -36 17 -17 16
-41 29 -52 29 -11 1 -31 7 -45 15 -32 18 -44 19 -37 1 5 -12 1 -13 -22 -5 -20
7 -40 6 -71 -5 -23 -8 -49 -12 -56 -9 -8 3 -14 0 -14 -6 0 -6 -14 -24 -30 -40
-17 -16 -28 -35 -25 -43 3 -8 -3 -22 -14 -32 -11 -10 -18 -23 -15 -27 3 -5 -4
-9 -15 -9 -14 0 -19 -5 -15 -15 5 -11 2 -13 -10 -9 -11 4 -16 2 -14 -7 2 -10
-7 -14 -34 -13 l-36 1 29 -31 c33 -36 34 -39 14 -59 -8 -8 -11 -17 -8 -21 4
-3 -2 -6 -12 -6 -10 0 -16 -3 -12 -6 3 -3 -10 -19 -28 -36 -20 -17 -32 -35
-28 -44 3 -9 -1 -14 -12 -14 -9 0 -14 -4 -10 -9 3 -5 -2 -17 -11 -25 -8 -9
-13 -16 -9 -16 4 0 0 -7 -8 -15 -9 -8 -17 -20 -19 -26 -3 -10 -12 -10 -38 -1
-25 9 -43 9 -74 1 -23 -7 -50 -13 -60 -14 -37 -3 -26 -21 14 -22 22 -1 40 2
40 7 0 5 9 14 21 20 16 9 26 8 44 -4 35 -23 318 -103 410 -115 44 -7 153 -11
243 -10 152 1 162 2 162 20 0 21 15 26 25 8 5 -6 12 -4 22 8 14 17 14 17 9 0
-3 -10 -6 -26 -6 -35 0 -15 -2 -15 -10 -2 -5 8 -10 10 -10 4 0 -5 5 -15 12
-22 9 -9 5 -12 -19 -12 -72 0 -123 -12 -123 -30 0 -15 6 -16 57 -8 76 12 92 9
69 -14 -9 -10 -15 -22 -12 -27 3 -4 -12 -8 -34 -7 -21 0 -33 4 -27 8 9 6 9 8
-1 8 -7 0 -11 4 -8 9 3 5 -15 7 -41 5 -31 -2 -42 0 -33 6 11 7 7 9 -14 7 -24
-2 -31 3 -36 23 -5 20 -13 26 -41 28 l-35 3 4 -71 4 -70 -41 0 c-36 0 -41 2
-38 23 2 19 -4 23 -38 29 -40 6 -40 6 8 5 36 -2 46 1 42 11 -3 8 -5 24 -5 37
0 18 -7 24 -37 29 -29 4 -41 2 -51 -12 -11 -14 -14 -15 -22 -2 -5 8 -7 17 -4
21 4 7 -103 42 -241 79 -82 21 -205 24 -222 5 -4 -4 0 -5 10 -2 16 6 16 4 -3
-23 -24 -33 -36 -40 -21 -12 7 13 6 23 -1 30 -17 17 -33 15 -19 -1 8 -11 7
-13 -7 -12 -9 0 -23 4 -30 9 -6 4 -16 5 -21 1 -5 -3 -12 -1 -16 5 -3 5 -14 10
-23 9 -14 0 -13 -2 3 -9 11 -5 14 -9 6 -9 -11 -1 -11 -4 -1 -15 6 -8 18 -12
26 -9 8 3 14 0 14 -6 0 -16 -25 -13 -40 4 -14 17 -65 21 -55 5 9 -15 -2 -12
-30 6 -20 13 -28 14 -40 4 -19 -16 -19 -26 1 -34 14 -5 15 -4 4 9 -11 13 -10
14 4 9 9 -3 16 -10 16 -16 0 -5 5 -6 10 -3 6 4 17 2 25 -5 9 -7 15 -8 20 0 3
5 12 10 18 10 14 -1 -22 -23 -41 -26 -6 -1 -9 3 -5 9 4 7 0 8 -11 4 -10 -4
-25 -7 -34 -7 -12 -1 -10 -5 8 -15 22 -13 23 -14 5 -15 -16 0 -17 -2 -5 -10
10 -6 20 -4 31 6 18 16 65 19 74 4 3 -5 15 -10 26 -10 23 0 24 -10 3 -36 -8
-10 -13 -14 -9 -7 7 14 -29 53 -49 53 -18 0 -66 -56 -67 -78 0 -12 -3 -11 -9
6 -5 12 -14 22 -20 22 -7 0 -7 -7 1 -22 10 -18 9 -20 -6 -14 -18 6 -45 -9 -45
-25 0 -14 38 -11 43 4 4 10 7 10 18 0 11 -11 10 -13 -3 -13 -21 0 -31 -29 -17
-46 6 -8 22 -14 36 -14 14 0 21 -4 18 -10 -3 -5 -17 -10 -30 -10 -29 0 -43
-18 -21 -26 9 -3 16 -12 16 -20 0 -8 7 -14 15 -14 11 0 12 -5 5 -26 -13 -33
-13 -34 5 -34 8 0 15 -5 15 -11 0 -7 -7 -8 -17 -4 -10 4 -26 7 -35 7 -10 0
-18 6 -18 14 0 8 -9 14 -20 14 -24 0 -27 -15 -4 -24 8 -3 13 -10 10 -14 -3 -5
7 -8 22 -6 15 2 19 1 10 -2 -31 -10 -18 -31 15 -25 5 1 6 -3 2 -9 -3 -5 -14
-10 -24 -10 -10 0 -24 -7 -31 -15 -9 -10 -9 -15 -1 -15 6 0 11 4 11 9 0 11 47
8 58 -4 4 -4 2 -5 -5 -2 -6 4 -18 1 -26 -7 -8 -8 -23 -13 -34 -10 -11 3 -25
-1 -32 -10 -14 -16 -51 -22 -51 -8 0 4 7 18 16 30 8 12 12 22 7 22 -4 0 -1 5
7 10 11 7 8 10 -16 10 -19 0 -48 -12 -74 -31 -23 -17 -39 -26 -35 -19 4 6 31
27 61 46 57 37 64 52 37 79 -12 12 -25 15 -50 10 -18 -3 -39 -2 -46 2 -8 5 -2
9 17 13 35 6 40 24 9 28 -25 4 -30 17 -12 28 6 3 8 15 6 26 -4 16 -3 17 9 7
16 -13 18 -1 4 21 -5 9 -5 19 2 27 7 9 7 13 0 13 -5 0 -12 -7 -16 -15 -3 -8
-11 -15 -18 -15 -9 0 -9 3 0 12 16 16 15 39 -2 32 -8 -3 -17 -1 -21 5 -3 6 2
11 12 11 14 0 18 8 19 35 0 34 0 35 -19 17 -20 -16 -20 -16 -13 3 18 46 18 54
-8 70 -18 12 -37 16 -59 12 -28 -5 -30 -5 -9 5 16 8 33 8 62 -1 51 -15 54 -15
59 0 2 8 -2 10 -13 6 -11 -5 -16 -1 -16 13 0 13 7 20 20 20 11 0 20 7 20 15 0
8 -4 15 -10 15 -5 0 -10 -4 -10 -8 0 -5 -7 -9 -15 -9 -8 0 -12 4 -9 9 3 4 0 8
-6 8 -6 0 -13 -6 -16 -14 -3 -8 -12 -17 -20 -20 -11 -4 -11 0 2 19 9 14 24 25
33 26 10 0 11 2 4 6 -7 2 -13 12 -13 20 0 13 3 13 15 3 9 -7 19 -10 23 -6 4 4
-1 12 -11 18 -18 9 -18 11 2 30 12 10 19 23 16 29 -9 14 -41 11 -55 -6 -10
-12 -15 -10 -36 12 l-24 26 -34 -32 c-19 -19 -49 -63 -67 -100 -34 -70 -48
-86 -63 -71 -6 6 -16 4 -28 -7 -17 -15 -18 -15 -19 3 0 14 -2 15 -6 4 -4 -8
-14 -21 -24 -28 -11 -8 -16 -19 -12 -30 11 -30 25 -31 58 -6 18 13 35 24 40
24 8 0 1 -34 -16 -77 -7 -15 -12 -43 -13 -60 -2 -36 -36 -83 -36 -50 0 9 -5
17 -11 17 -6 0 -8 -9 -4 -20 4 -11 2 -20 -4 -20 -6 0 -2 -9 9 -20 23 -23 27
-68 6 -76 -8 -3 -12 -12 -9 -19 3 -9 -5 -17 -21 -21 -14 -3 -23 -11 -20 -16 4
-6 10 -6 16 0 6 6 17 8 24 5 11 -4 10 -8 -2 -21 -15 -14 -14 -16 5 -24 29 -10
27 -16 -4 -10 -14 2 -25 0 -25 -6 0 -6 -3 -17 -6 -26 -4 -11 -1 -16 11 -16 11
0 15 5 11 15 -8 21 8 19 29 -5 10 -11 14 -20 9 -20 -15 0 -16 -51 -2 -68 11
-13 10 -14 -9 -3 -13 6 -23 19 -23 29 -1 16 -2 15 -11 -1 -8 -14 -14 -16 -25
-6 -12 10 -12 14 3 26 15 12 15 14 2 10 -13 -4 -18 3 -22 31 -13 84 -26 112
-52 112 -11 0 -10 -12 2 -57 15 -57 28 -170 17 -145 -7 16 -49 62 -56 62 -3 0
-3 -12 0 -26 4 -24 3 -25 -17 -15 -12 7 -25 10 -30 7 -4 -3 -16 1 -26 8 -25
18 -51 -4 -37 -31 21 -38 63 -174 59 -186 -3 -7 -6 -3 -6 9 -1 11 -5 24 -9 30
-5 5 -19 36 -31 69 -22 62 -53 94 -74 77 -23 -18 -74 -21 -95 -6 -20 14 -22
13 -26 -8 -8 -38 -2 -87 12 -93 7 -3 10 -10 7 -16 -8 -12 23 -49 42 -49 7 0
13 -4 13 -9 0 -5 -9 -7 -19 -4 -11 3 -28 0 -38 -7 -14 -9 -8 -10 35 -7 30 2
48 1 41 -4 -10 -6 -10 -11 1 -24 12 -14 15 -14 34 3 12 11 32 25 46 32 23 12
24 12 11 -3 -11 -14 -11 -21 3 -42 9 -14 12 -25 6 -25 -5 0 -10 5 -10 10 0 6
-5 10 -11 10 -6 0 -8 -9 -4 -20 4 -14 1 -22 -10 -26 -14 -6 -14 -9 5 -29 20
-21 19 -55 -1 -55 -4 0 -6 6 -3 14 3 7 -2 16 -10 19 -22 9 -77 -12 -70 -26 4
-7 1 -7 -7 1 -11 10 -11 16 -1 32 10 17 9 21 -11 31 -12 7 -25 16 -28 22 -4 5
-43 10 -87 11 l-79 1 8 29 c5 16 5 47 2 70 -10 63 -9 126 2 126 6 0 10 -8 10
-18 0 -9 4 -23 8 -29 5 -7 5 -18 1 -25 -4 -7 -3 -8 4 -4 7 4 12 16 12 27 0 11
4 18 9 14 6 -3 8 4 6 15 -2 12 1 20 10 20 15 0 16 65 1 88 -6 10 -3 13 10 10
11 -2 20 -9 20 -16 1 -6 2 -19 3 -27 1 -20 17 -19 26 3 16 40 33 117 27 127
-3 5 3 3 13 -5 11 -9 16 -10 11 -2 -4 7 -10 24 -12 39 -5 24 -3 25 12 12 9 -7
28 -12 42 -11 18 3 22 0 17 -10 -5 -7 4 -2 18 11 15 13 25 27 22 30 -2 4 8 8
21 9 18 1 23 -2 18 -11 -4 -6 -3 -9 1 -4 5 4 10 17 12 28 4 28 58 154 92 214
15 28 26 55 24 60 -4 12 49 72 87 98 14 9 19 16 11 14 -7 -1 -16 4 -18 11 -3
7 1 10 9 7 8 -3 23 4 33 15 12 14 14 20 6 18 -7 -2 -16 3 -18 10 -3 6 0 12 6
12 6 0 11 15 11 33 l-1 32 -18 -22 c-31 -37 -43 -26 -16 13 27 39 32 73 14 91
-8 8 -6 17 10 35 12 12 17 24 12 26 -8 3 -8 10 -1 23 9 15 7 19 -6 19 -13 0
-14 3 -5 14 6 7 9 20 6 28 -6 16 -47 38 -69 38 -22 0 -41 29 -28 42 8 8 24 4
60 -15 54 -28 70 -26 48 9 -12 18 -13 25 -2 39 17 23 46 13 46 -15 0 -34 30
-37 56 -5 12 16 22 34 21 39 -1 6 3 10 9 9 5 -1 16 7 22 18 11 17 10 20 -5 17
-13 -2 -17 2 -15 17 2 11 6 22 8 24 6 7 43 -30 49 -50 7 -21 75 -92 75 -78 0
5 9 9 19 9 11 0 23 5 26 10 3 6 2 10 -4 10 -18 0 -1 25 26 37 17 8 30 9 38 3
16 -13 27 0 14 16 -9 10 -7 15 4 20 9 3 13 12 10 20 -3 9 -12 13 -19 10 -17
-7 -18 6 -2 22 10 10 10 15 -2 22 -8 5 -18 6 -22 4 -18 -11 -6 13 22 46 19 22
25 37 18 41 -13 8 -54 -7 -81 -30 -16 -13 -17 -13 -11 2 3 10 21 25 38 34 33
18 128 34 120 21 -3 -4 0 -8 7 -8 6 0 9 8 6 20 -3 11 0 20 6 20 7 0 4 5 -6 11
-10 6 -24 8 -32 5 -9 -3 -12 0 -8 9 3 8 10 12 17 8 6 -3 2 3 -8 15 -11 12 -14
22 -8 22 6 0 14 -4 17 -10 3 -5 15 -10 26 -10 10 0 19 5 19 10 0 6 -11 10 -24
10 -14 0 -28 5 -32 11 -4 7 -9 7 -13 2 -3 -5 -22 -17 -41 -26 -33 -16 -34 -16
-15 1 11 9 20 23 21 30 1 6 2 17 3 23 0 7 20 10 50 7 54 -3 54 3 1 49 l-25 21
29 12 c16 6 35 9 43 6 16 -6 18 -27 2 -24 -21 5 -21 -20 0 -41 10 -10 16 -23
13 -27 -4 -3 3 -1 16 5 26 14 28 33 7 55 -22 21 -18 32 4 12 23 -21 32 -61 18
-75 -8 -8 -6 -11 7 -11 14 0 17 5 12 24 -3 14 -1 28 5 31 6 5 4 12 -8 21 -16
13 -14 14 22 9 22 -3 33 -2 25 1 -8 4 -21 11 -28 17 -11 9 -11 12 5 18 17 7
17 8 0 8 -17 1 -17 2 0 25 14 19 24 23 46 19 21 -4 27 -2 27 11 0 11 7 16 18
14 11 -2 17 3 16 15 -2 17 0 17 22 3 14 -10 25 -12 29 -6 4 6 11 7 17 4 7 -4
8 -2 4 5 -4 6 -11 9 -16 6 -4 -3 -11 2 -14 11 -3 9 -12 14 -19 11 -8 -3 -14 3
-14 14 -2 20 8 18 37 -7 9 -8 21 -10 29 -5 11 7 9 10 -8 16 -12 3 -19 10 -16
15 3 5 1 11 -5 15 -5 3 -15 15 -21 27 -9 16 -8 19 3 12 7 -5 18 -9 23 -10 6
-1 19 -3 31 -5 11 -2 22 -1 22 4 5 24 0 29 -25 22 -26 -6 -27 -5 -8 8 10 8 26
12 35 9 11 -4 12 -2 4 7 -6 6 -21 13 -34 16 -33 6 -37 15 -7 15 16 0 26 5 24
13 -1 7 10 13 26 15 15 2 27 8 27 13 0 5 0 12 0 17 0 4 -4 7 -10 7 -5 0 -9 4
-7 10 1 5 9 10 17 10 8 0 14 6 12 13 -1 8 2 11 10 6 15 -9 58 -12 58 -4 0 3
-4 10 -10 16 -6 6 4 8 29 6 46 -5 63 14 27 28 -37 14 -32 24 7 16 31 -6 32 -6
10 9 -32 23 -28 32 10 27 l32 -5 -24 27 c-18 19 -21 26 -9 26 8 0 30 7 48 16
l33 17 -24 19 -24 19 32 -15 c37 -18 43 -19 43 -7 0 5 -9 11 -21 14 -13 3 -18
10 -14 17 5 9 10 9 18 1 13 -13 47 -15 47 -2 0 6 -5 13 -12 17 -7 4 -8 3 -4
-4 4 -7 2 -12 -3 -12 -12 0 -12 0 -15 51 -3 36 -2 36 26 29 31 -10 33 -8 17
22 -10 19 -9 20 17 14 27 -7 28 -6 13 11 -24 29 -18 48 19 51 17 2 32 6 32 10
0 3 -15 21 -32 40 -18 18 -26 30 -17 27 9 -3 22 1 29 10 7 8 19 15 27 15 8 0
12 4 9 9 -12 19 7 43 29 39 18 -4 21 -1 17 21 -3 14 -1 23 3 19 7 -6 15 -1 50
30 7 6 21 12 29 12 10 0 16 9 16 21 0 18 2 20 16 8 13 -11 14 -9 9 14 -8 31
12 32 46 1 l22 -19 -5 27 c-6 30 8 33 50 9 21 -11 24 -10 29 9 5 20 6 20 26 3
19 -17 20 -17 14 0 -6 16 -4 16 23 2 32 -17 44 -19 36 -7 -2 4 -1 14 3 21 6 9
16 7 45 -9 29 -18 35 -19 30 -6 -3 9 -10 13 -15 10 -5 -3 -6 2 -3 10 8 21 16
20 50 -6 16 -12 23 -15 17 -8 -7 8 -13 17 -13 21 0 11 28 5 42 -9 20 -20 32
-13 14 7 -14 16 -15 19 -3 17 8 -1 23 -8 33 -16 16 -14 16 -13 5 8 -6 12 -9
22 -5 22 3 0 14 -10 25 -22 17 -21 18 -22 19 -4 0 18 1 18 20 1 19 -18 20 -17
20 5 l0 22 20 -23 19 -24 2 30 c1 18 3 23 6 12 3 -10 12 -17 21 -16z m385 14
c-3 -9 -8 -14 -10 -11 -3 3 -2 9 2 15 9 16 15 13 8 -4z m1657 -5 c0 -5 -4 -10
-10 -10 -5 0 -10 5 -10 10 0 6 5 10 10 10 6 0 10 -4 10 -10z m-3961 -17 c6
-12 5 -22 -4 -30 -11 -10 -13 -7 -13 17 1 35 4 37 17 13z m1105 -39 c4 -15 5
-29 1 -32 -3 -3 -5 3 -5 14 0 14 -2 16 -9 6 -7 -11 -10 -10 -15 3 -7 18 0 35
14 35 4 0 11 -12 14 -26z m36 10 c0 -8 -19 -13 -24 -6 -3 5 1 9 9 9 8 0 15 -2
15 -3z m1690 -21 c0 -12 -2 -12 -15 1 -8 8 -15 17 -15 20 0 3 7 3 15 0 8 -4
15 -13 15 -21z m98 7 c3 -7 0 -10 -6 -6 -6 3 -13 -2 -15 -11 -3 -11 -5 -7 -6
10 -1 29 18 34 27 7z m1037 10 c3 -5 1 -10 -4 -10 -6 0 -11 5 -11 10 0 6 2 10
4 10 3 0 8 -4 11 -10z m-4009 -45 c-21 -16 -32 -13 -21 4 3 6 14 11 23 11 15
-1 15 -2 -2 -15z m4074 -17 c0 -12 -6 -9 -26 13 -19 22 -19 22 4 8 12 -8 22
-17 22 -21z m794 -203 c-14 -19 -29 -35 -31 -35 -5 0 7 18 36 53 26 31 23 18
-5 -18z m-1920 6 c-10 -10 -21 -16 -24 -14 -3 3 4 11 14 19 28 20 33 17 10 -5z
m1130 -78 c-16 -38 -34 -64 -34 -49 0 4 5 16 10 27 8 13 7 25 0 39 -9 18 -8
20 14 20 25 0 25 0 10 -37z m-4109 7 c-4 -6 -1 -18 6 -26 10 -12 9 -13 -5 -8
-18 7 -22 44 -5 44 5 0 7 -5 4 -10z m4819 -61 c-6 -11 -24 -2 -24 11 0 5 7 7
15 4 8 -4 12 -10 9 -15z m-4804 -19 c0 -10 10 -26 22 -34 12 -9 18 -16 13 -16
-20 1 -42 26 -47 52 -3 15 -1 25 3 22 5 -3 9 -14 9 -24z m4066 -17 c-2 -16 -4
-31 -5 -34 0 -4 -10 -9 -22 -12 -18 -5 -18 -3 -7 11 7 9 18 20 23 24 6 5 5 8
-4 8 -11 0 -11 3 -1 15 17 21 19 19 16 -12z m-30 -91 c-22 -22 -29 -10 -8 16
9 12 19 16 21 11 2 -6 -4 -18 -13 -27z m-3966 -37 c10 -12 10 -15 -3 -15 -8 0
-17 7 -21 15 -3 8 -2 15 3 15 5 0 14 -7 21 -15z m3940 -4 c0 -17 -12 -41 -21
-41 -4 0 -6 7 -3 15 4 9 0 15 -7 15 -11 0 -11 3 1 10 19 12 30 13 30 1z
m-3930 -31 c0 -5 -5 -10 -11 -10 -5 0 -7 5 -4 10 3 6 8 10 11 10 2 0 4 -4 4
-10z m15 -30 c3 -6 -1 -7 -9 -4 -18 7 -21 14 -7 14 6 0 13 -4 16 -10z m3865
-50 c13 -8 13 -10 -2 -10 -9 0 -20 5 -23 10 -8 13 5 13 25 0z m-43 -66 c-3 -3
-12 -4 -19 -1 -8 3 -5 6 6 6 11 1 17 -2 13 -5z m-3352 -54 c3 -6 0 -10 -7 -10
-9 -1 -7 -5 5 -14 22 -17 22 -25 -1 -19 -10 2 -23 13 -30 23 -10 17 -9 18 6
13 15 -6 14 -3 -3 17 l-20 23 22 -12 c12 -6 25 -16 28 -21z m3280 20 c3 -5 1
-10 -4 -10 -6 0 -11 5 -11 10 0 6 2 10 4 10 3 0 8 -4 11 -10z m-3592 -17 c-7
-2 -19 -2 -25 0 -7 3 -2 5 12 5 14 0 19 -2 13 -5z m3392 -5 c-3 -7 -16 -14
-30 -14 -28 -2 -34 12 -7 19 32 9 41 7 37 -5z m-3278 -4 c-3 -3 -12 -4 -19 -1
-8 3 -5 6 6 6 11 1 17 -2 13 -5z m108 -4 c3 -5 1 -10 -4 -10 -6 0 -11 5 -11
10 0 6 2 10 4 10 3 0 8 -4 11 -10z m3070 -10 c-10 -11 -23 -20 -28 -20 -6 0
-2 9 8 20 10 11 23 20 28 20 6 0 2 -9 -8 -20z m20 -40 c-10 -11 -23 -20 -28
-20 -6 0 -2 9 8 20 10 11 23 20 28 20 6 0 2 -9 -8 -20z m-3005 -30 c0 -5 -4
-10 -10 -10 -5 0 -10 5 -10 10 0 6 5 10 10 10 6 0 10 -4 10 -10z m3000 -10 c0
-5 -8 -10 -17 -10 -15 0 -16 2 -3 10 19 12 20 12 20 0z m-3022 -28 c2 -7 -3
-12 -12 -12 -9 0 -16 7 -16 16 0 17 22 14 28 -4z m3032 -7 c10 -12 10 -15 -4
-15 -9 0 -16 7 -16 15 0 8 2 15 4 15 2 0 9 -7 16 -15z m19 -66 c-24 -21 -39
-24 -39 -10 0 14 42 41 52 35 5 -3 -1 -14 -13 -25z m-3089 11 c0 -5 7 -10 16
-10 12 0 15 -6 9 -22 -4 -13 -7 -31 -6 -40 0 -10 -6 -17 -12 -15 -7 1 -11 -5
-9 -14 4 -25 -21 -18 -46 13 l-24 28 24 0 c13 0 31 7 41 14 15 12 15 15 2 26
-17 14 -20 30 -5 30 6 0 10 -4 10 -10z m160 -10 c0 -5 -2 -10 -4 -10 -3 0 -8
5 -11 10 -3 6 -1 10 4 10 6 0 11 -4 11 -10z m2865 -20 c3 -5 1 -10 -4 -10 -6
0 -11 5 -11 10 0 6 2 10 4 10 3 0 8 -4 11 -10z m103 -28 c37 -5 43 -27 10 -38
-21 -6 -21 -7 -3 -20 10 -7 23 -15 29 -17 6 -3 -5 -20 -26 -39 -26 -25 -41
-32 -55 -27 -16 7 -15 8 5 8 14 1 22 7 22 19 0 10 6 24 12 30 10 10 8 14 -10
18 -12 4 -19 11 -16 16 4 5 -4 24 -16 41 -21 27 -21 29 -4 22 10 -4 34 -10 52
-13z m-3223 -31 c-3 -6 -11 -11 -17 -11 -6 0 -6 6 2 15 14 17 26 13 15 -4z
m3190 -59 c-6 -6 -35 18 -35 29 0 5 9 1 20 -8 11 -9 17 -19 15 -21z m-3212
-19 c-7 -2 -19 -2 -25 0 -7 3 -2 5 12 5 14 0 19 -2 13 -5z m3177 -23 c0 -5 -7
-7 -15 -4 -8 4 -12 10 -9 15 6 11 24 2 24 -11z m160 -100 c0 -10 -38 -1 -45
10 -2 4 7 5 20 2 14 -2 25 -8 25 -12z m270 -50 c0 -5 -2 -10 -4 -10 -3 0 -8 5
-11 10 -3 6 -1 10 4 10 6 0 11 -4 11 -10z m-3920 -54 c0 -5 -7 -1 -15 10 -8
10 -14 24 -14 29 0 6 6 1 14 -9 8 -11 15 -24 15 -30z m-34 1 c8 3 14 -1 14
-11 0 -9 -3 -16 -6 -16 -14 0 -44 22 -44 32 0 9 3 9 11 1 6 -6 18 -9 25 -6z
m74 -89 c0 -5 -6 -11 -14 -14 -8 -3 -12 -14 -9 -27 5 -18 3 -20 -8 -9 -22 20
-32 14 -16 -11 13 -20 13 -24 -9 -40 -28 -21 -32 -21 -30 1 0 9 -5 16 -11 15
-7 -2 -13 2 -13 7 0 6 -6 10 -13 10 -7 0 -13 9 -13 19 0 11 5 19 10 18 6 -1
10 4 11 12 0 8 6 16 14 19 8 3 11 0 7 -7 -4 -6 -2 -11 4 -11 8 0 8 -6 0 -20
-9 -16 -8 -20 5 -20 9 0 14 4 11 9 -3 5 1 11 9 15 8 3 12 12 9 21 -4 10 0 15
10 15 15 0 20 11 17 35 -1 6 6 1 14 -9 8 -11 15 -24 15 -28z m15 22 c3 -5 1
-10 -4 -10 -6 0 -11 5 -11 10 0 6 2 10 4 10 3 0 8 -4 11 -10z m1459 -126 c5
-14 4 -15 -9 -4 -17 14 -19 20 -6 20 5 0 12 -7 15 -16z m2206 -15 c0 -6 -4 -7
-10 -4 -5 3 -10 11 -10 16 0 6 5 7 10 4 6 -3 10 -11 10 -16z m-3710 -24 c0
-13 -4 -14 -20 -5 -11 6 -20 13 -20 15 0 3 9 5 20 5 11 0 20 -7 20 -15z m3814
-37 c-11 -16 -47 -21 -37 -4 16 28 27 36 36 27 5 -5 5 -15 1 -23z m-3957 -181
c0 -7 -9 -13 -19 -13 -21 0 -24 12 -5 19 20 9 24 8 24 -6z m2773 -9 c12 -8 11
-8 -3 -4 -10 3 -33 6 -50 6 -24 0 -28 3 -17 10 15 10 43 5 70 -12z m-1246 4
c2 -4 -16 -9 -40 -10 -27 -1 -43 2 -39 8 7 12 72 13 79 2z m-1534 -54 c0 -19
-18 -43 -25 -36 -4 3 -2 16 5 27 12 24 20 27 20 9z m4010 -6 c0 -5 11 -15 25
-22 14 -7 25 -21 25 -30 0 -26 88 -96 103 -81 19 19 28 12 23 -19 -2 -16 1
-33 6 -36 7 -4 8 -2 4 4 -5 8 3 12 25 12 31 0 32 0 14 20 -16 17 -16 20 -2 20
8 0 22 3 30 6 10 3 20 -3 27 -16 10 -18 10 -21 -2 -14 -11 6 -11 5 1 -9 9 -11
30 -18 60 -19 l46 -1 -40 -4 c-22 -3 -43 -9 -46 -15 -11 -17 -1 -130 12 -139
8 -5 4 -8 -12 -11 l-24 -3 22 -19 c12 -11 19 -24 16 -30 -4 -6 1 -5 10 3 14
11 18 11 24 -5 4 -11 1 -21 -9 -27 -14 -9 -14 -15 2 -59 18 -52 54 -107 63
-98 9 8 -19 120 -32 133 -18 18 -13 23 28 24 46 2 56 -12 36 -51 -12 -22 -12
-26 0 -26 8 0 13 -9 12 -19 -1 -12 -7 -17 -17 -14 -12 4 -11 1 3 -10 9 -8 17
-28 17 -44 0 -19 9 -38 25 -53 14 -13 25 -19 25 -14 0 5 9 -6 21 -25 11 -18
22 -31 24 -29 3 2 5 34 6 71 1 37 6 67 11 67 6 0 8 -11 6 -25 -3 -14 -1 -25 4
-25 5 0 6 -5 2 -12 -4 -6 -6 -31 -5 -55 1 -32 -2 -42 -10 -37 -8 4 -9 3 -5 -4
4 -7 19 -12 34 -12 22 -1 24 -2 10 -10 -13 -8 -15 -16 -7 -42 5 -17 12 -34 17
-37 4 -3 19 -22 32 -41 24 -36 88 -100 99 -100 3 0 7 -19 9 -43 1 -23 5 -49 7
-57 4 -11 -5 -16 -35 -17 -24 -2 -40 2 -40 8 0 15 -52 2 -66 -16 -6 -8 -14
-12 -17 -9 -7 7 -48 -14 -44 -24 1 -4 -13 -22 -32 -40 -41 -38 -61 -30 -37 16
9 17 12 33 7 36 -5 4 -5 19 2 36 8 21 18 30 34 30 15 0 21 5 17 14 -3 8 -13
12 -22 9 -10 -3 -7 3 7 15 20 16 30 18 55 10 17 -5 40 -12 51 -14 l20 -5 -20
12 c-11 7 -26 14 -33 15 -21 4 -23 9 -11 41 6 17 9 48 7 69 -3 34 -8 41 -43
59 -43 21 -62 24 -82 12 -9 -6 -13 -1 -13 16 0 35 -8 38 -46 15 -39 -23 -66
-21 -70 6 -8 56 -6 94 6 116 12 23 12 24 -3 11 -15 -12 -17 -11 -17 9 0 13 8
29 18 36 16 12 16 14 0 30 -21 22 -34 12 -42 -31 -4 -19 -12 -35 -18 -35 -6 0
-6 -6 2 -15 11 -13 11 -18 0 -28 -10 -9 -11 -9 -6 1 4 6 2 12 -4 12 -6 0 -13
-7 -16 -15 -10 -25 -25 -5 -20 26 2 16 0 29 -6 29 -6 0 -6 6 2 15 10 12 8 14
-7 11 -18 -4 -22 4 -26 57 -1 9 -5 17 -10 17 -5 0 -6 7 -3 15 3 9 -1 18 -8 21
-8 3 -17 24 -21 47 -3 23 -15 73 -27 110 -11 38 -17 71 -14 74 3 4 6 1 6 -5 0
-12 50 -42 70 -42 5 0 10 9 10 21 0 11 4 18 8 15 5 -3 9 1 9 10 0 10 -7 12
-20 8 -12 -4 -17 -2 -13 4 3 5 -1 12 -9 16 -8 3 -15 1 -15 -4 0 -6 -5 -10 -11
-10 -5 0 -8 4 -4 9 3 5 1 12 -5 16 -5 3 -10 2 -10 -4 0 -6 -7 -8 -15 -4 -9 3
-14 8 -11 11 3 2 -5 13 -18 23 -13 10 -29 33 -37 51 -7 18 -15 35 -18 38 -35
31 -69 83 -64 96 5 14 2 16 -23 10 -19 -5 -26 -4 -19 2 9 9 31 17 58 21 4 0 7
-3 7 -7z m224 -27 c4 -14 4 -30 1 -35 -9 -15 -51 -12 -64 4 -10 11 -8 16 8 21
10 3 22 12 25 20 8 23 23 18 30 -10z m-4652 -80 c3 -14 1 -28 -3 -31 -5 -3
-10 -40 -10 -82 l-2 -77 -8 85 c-7 85 -4 130 11 130 4 0 10 -11 12 -25z m358
5 c0 -5 -5 -10 -11 -10 -5 0 -7 5 -4 10 3 6 8 10 11 10 2 0 4 -4 4 -10z m400
-10 c0 -5 -5 -10 -11 -10 -5 0 -7 5 -4 10 3 6 8 10 11 10 2 0 4 -4 4 -10z
m1901 -51 c30 -6 60 -12 67 -13 7 -1 18 -8 25 -16 10 -10 9 -11 -3 -5 -11 6
-10 3 3 -12 9 -11 15 -22 12 -25 -3 -2 6 -10 19 -18 26 -13 42 -60 21 -60 -7
0 -19 -8 -26 -17 -13 -17 -12 -17 4 -4 16 13 20 13 28 0 14 -23 11 -37 -12
-44 -31 -10 -17 -30 24 -33 32 -3 39 -8 52 -38 8 -19 41 -76 75 -128 34 -52
77 -132 96 -177 18 -46 38 -87 44 -93 5 -5 10 -17 10 -26 0 -8 14 -30 30 -48
17 -18 30 -37 30 -43 0 -5 4 -9 8 -9 10 0 52 -85 52 -106 0 -8 10 -19 23 -25
20 -9 20 -9 1 -6 -16 3 -20 0 -18 -17 1 -12 3 -25 3 -29 1 -4 10 -3 22 3 11 6
25 10 31 8 6 -2 -3 -10 -20 -17 -41 -17 -50 -40 -14 -36 15 2 31 0 37 -3 5 -4
23 -5 39 -3 20 2 26 -1 21 -9 -6 -9 -26 -11 -69 -6 -41 4 -56 3 -46 -4 10 -6
11 -10 3 -10 -7 0 -10 -6 -7 -13 3 -8 0 -26 -6 -42 -8 -22 -8 -30 2 -37 9 -5
6 -8 -9 -8 -13 0 -23 -4 -23 -8 0 -10 -23 -36 -69 -77 -19 -16 -30 -23 -26
-15 6 12 5 13 -5 3 -15 -14 -46 -1 -67 26 -7 9 -13 11 -13 6 0 -6 5 -16 12
-23 11 -11 9 -13 -8 -11 -4 0 -10 -4 -14 -11 -5 -8 -11 -6 -20 5 -11 13 -10
15 4 9 18 -7 22 11 4 22 -8 5 -6 11 6 20 10 7 15 17 12 23 -3 5 -1 11 6 14 12
4 -11 0 -55 -9 -15 -3 -17 -1 -7 11 8 10 9 15 2 15 -6 0 -14 -5 -17 -11 -5 -7
-13 -5 -25 6 -18 16 -17 18 8 67 34 67 40 148 13 203 l-19 40 -1 -43 -1 -44
-31 31 c-17 17 -38 31 -47 31 -9 0 -28 3 -42 7 -23 6 -24 5 -10 -12 14 -17 14
-17 -8 -4 -12 8 -20 19 -18 24 2 6 -5 12 -15 12 -22 2 -24 -8 -7 -25 8 -8 0
-6 -18 3 -18 8 -37 22 -44 30 -17 20 -25 19 -36 -6 -9 -19 -10 -16 -11 16 -1
22 2 33 7 26 5 -10 9 -9 13 2 7 19 -21 16 -33 -2 -6 -10 -9 -10 -15 -1 -6 9
-10 9 -16 -1 -7 -11 -9 -9 -9 6 0 16 -2 17 -9 6 -8 -12 -12 -12 -25 -2 -14 12
-16 10 -16 -8 0 -11 -5 -21 -11 -21 -6 0 -9 6 -6 14 3 8 -1 20 -9 26 -8 7 -15
10 -15 6 -1 -3 -2 -9 -3 -13 -1 -5 -5 -14 -9 -20 -5 -7 -6 -17 -3 -22 3 -5 0
-14 -8 -20 -11 -9 -12 -7 -9 11 2 13 -1 34 -7 48 -10 24 -10 24 -6 1 5 -22 -7
-52 -30 -77 -9 -11 -11 19 -4 66 0 3 5 -2 10 -10 8 -12 10 -11 10 7 0 32 -25
19 -44 -22 -10 -21 -25 -34 -41 -37 -13 -3 -22 -1 -19 3 11 18 -27 8 -43 -10
-9 -11 -20 -18 -25 -15 -5 3 -16 0 -25 -8 -15 -12 -16 -10 -9 15 6 26 5 27
-14 17 -12 -6 -30 -26 -42 -43 -11 -18 -17 -24 -14 -14 18 54 18 67 3 61 -19
-7 -47 -48 -47 -69 0 -8 -3 -15 -7 -15 -10 0 -9 -53 2 -70 5 -8 2 -18 -9 -26
-19 -13 -46 -13 -48 2 -1 9 -28 33 -38 34 -3 0 -6 -9 -7 -20 -1 -11 2 -18 8
-15 5 4 9 2 9 -4 0 -5 -5 -13 -11 -17 -11 -6 -8 -40 7 -79 7 -17 6 -18 -8 -5
-9 8 -14 18 -12 21 2 4 -3 12 -11 19 -13 11 -14 10 -9 -4 3 -9 0 -18 -8 -21
-8 -3 -13 -19 -12 -40 1 -20 -2 -32 -8 -29 -5 3 -7 12 -4 19 2 7 -2 21 -10 32
-14 17 -15 17 -9 -4 4 -13 2 -23 -3 -23 -5 0 -12 9 -15 21 -3 12 -10 19 -14
16 -5 -3 -10 3 -10 14 -1 12 3 17 10 13 7 -3 -4 8 -23 26 -21 19 -26 28 -13
21 25 -13 39 8 20 29 -9 10 -9 11 3 5 13 -8 13 -7 1 8 -11 14 -11 17 0 18 10
0 10 2 2 5 -7 3 -9 12 -6 21 5 12 2 14 -8 9 -8 -4 -6 -1 4 7 10 8 14 17 9 18
-17 7 29 121 76 193 67 101 69 104 50 88 -14 -11 -16 -10 -11 7 3 12 9 21 13
21 5 0 11 14 15 30 4 17 11 30 16 30 5 0 9 5 9 11 0 15 79 178 108 221 l24 38
73 -1 c99 -1 124 14 171 100 38 70 63 91 110 91 44 0 80 -27 124 -95 24 -36
55 -72 69 -79 35 -18 161 -31 161 -17 0 6 -15 11 -32 12 -128 2 -141 9 -186
97 -38 78 -75 104 -146 107 -57 2 -58 2 -84 -39 -14 -23 -35 -50 -46 -60 -12
-12 -15 -21 -8 -24 18 -6 -8 -52 -39 -68 -29 -15 -145 -20 -152 -6 -2 4 4 25
14 47 10 22 19 35 19 28 0 -12 78 -39 86 -30 2 2 -5 16 -17 30 -11 15 -16 27
-10 27 6 0 11 -4 11 -9 0 -5 14 -11 30 -13 17 -3 30 -3 30 -1 0 9 -83 43 -92
37 -6 -4 -8 -3 -4 4 3 6 2 13 -4 17 -14 9 -12 28 3 22 6 -2 23 -7 37 -11 22
-6 21 -5 -5 10 -16 9 -31 18 -33 19 -1 1 3 14 9 29 9 19 17 25 31 20 16 -5 18
-2 13 19 -8 29 8 41 72 56 54 13 221 13 284 0z m-2346 -9 c3 -5 1 -10 -4 -10
-6 0 -11 5 -11 10 0 6 2 10 4 10 3 0 8 -4 11 -10z m1120 -56 c12 -12 13 -19 4
-30 -14 -17 -52 -19 -46 -1 2 6 13 11 25 11 12 -1 19 3 16 7 -3 5 -10 6 -16 3
-7 -5 -8 -2 -3 6 6 10 3 12 -13 8 -12 -4 -22 -2 -22 3 0 15 37 10 55 -7z
m3350 6 c-11 -5 -14 -9 -7 -9 6 -1 12 -5 12 -11 0 -5 -5 -9 -12 -7 -19 4 -19
-51 0 -56 10 -3 6 -5 -10 -6 -26 -1 -27 1 -25 49 2 49 3 50 32 49 26 0 27 -2
10 -9z m-3565 -10 c0 -5 -5 -10 -11 -10 -5 0 -7 5 -4 10 3 6 8 10 11 10 2 0 4
-4 4 -10z m810 6 c0 -3 -4 -8 -10 -11 -5 -3 -10 -1 -10 4 0 6 5 11 10 11 6 0
10 -2 10 -4z m1600 -5 c0 -19 -20 -22 -47 -7 l-28 15 38 1 c20 0 37 -4 37 -9z
m87 3 c-3 -3 -12 -4 -19 -1 -8 3 -5 6 6 6 11 1 17 -2 13 -5z m40 -36 c-3 -8
-6 -5 -6 6 -1 11 2 17 5 13 3 -3 4 -12 1 -19z m153 6 c0 -2 -9 -4 -21 -4 -11
0 -18 4 -14 10 5 8 35 3 35 -6z m-2703 0 c-3 -3 -12 -4 -19 -1 -8 3 -5 6 6 6
11 1 17 -2 13 -5z m2249 -1 c-14 -4 -16 -7 -6 -13 8 -5 3 -8 -14 -7 -24 2 -25
3 -9 15 9 6 24 11 32 11 11 -1 10 -3 -3 -6z m149 -3 c3 -5 0 -10 -7 -10 -7 0
-23 -3 -35 -6 -17 -5 -23 -2 -23 10 0 18 54 23 65 6z m-1905 -10 c0 -5 -15 -9
-32 -9 l-33 1 30 8 c17 4 31 8 33 9 1 0 2 -3 2 -9z m1649 -32 c-1 -32 -2 -32
-8 -6 -4 19 -10 25 -19 19 -7 -4 -12 -14 -10 -22 2 -9 -7 -15 -24 -17 -24 -3
-28 0 -28 22 0 19 6 26 28 29 61 9 62 9 61 -25z m-129 -4 c0 -16 -16 -19 -25
-4 -8 13 4 32 16 25 5 -4 9 -13 9 -21z m-1403 10 c-3 -3 -12 -4 -19 -1 -8 3
-5 6 6 6 11 1 17 -2 13 -5z m1323 -9 c0 -8 -10 -20 -22 -26 l-22 -12 24 -10
c14 -5 20 -11 14 -13 -6 -3 -22 0 -36 5 -20 8 -25 15 -21 35 5 22 11 27 56 35
4 0 7 -6 7 -14z m-1957 -20 c-3 -9 -8 -14 -10 -11 -3 3 -2 9 2 15 9 16 15 13
8 -4z m1770 -4 c6 -24 -3 -71 -13 -71 -12 0 -40 29 -40 41 0 5 12 9 28 9 23 1
24 2 10 11 -21 12 -24 29 -4 29 7 0 16 -9 19 -19z m78 -8 c7 -21 5 -23 -21
-23 -17 0 -30 -5 -30 -10 0 -6 12 -8 28 -4 21 4 24 3 12 -5 -19 -13 -60 -14
-60 -2 0 5 7 16 15 25 8 8 15 22 15 31 0 24 31 14 41 -12z m-1041 -3 c8 -5 11
-10 5 -10 -5 0 -17 5 -25 10 -8 5 -10 10 -5 10 6 0 17 -5 25 -10z m2070 -69
c0 -9 -9 -2 -19 15 -23 38 -43 52 -49 36 -2 -7 -8 -12 -13 -12 -5 0 -4 9 3 20
12 19 14 19 45 -12 18 -18 33 -39 33 -47z m-708 41 c-4 -21 -6 -22 -14 -8 -8
15 -12 15 -35 -4 -34 -26 -48 -25 -51 4 -1 22 3 25 41 28 23 2 47 3 53 4 6 0
9 -10 6 -24z m-1308 -7 c3 -8 1 -15 -4 -15 -6 0 -10 7 -10 15 0 8 2 15 4 15 2
0 6 -7 10 -15z m1056 -15 c0 -11 -7 -20 -15 -20 -13 0 -13 3 -3 20 7 11 14 20
15 20 2 0 3 -9 3 -20z m-1961 -10 c-13 -9 -39 -2 -39 10 0 4 12 5 26 2 17 -3
22 -7 13 -12z m1992 -3 c-10 -9 -11 -8 -5 6 3 10 9 15 12 12 3 -3 0 -11 -7
-18z m84 3 c3 -6 -1 -7 -9 -4 -18 7 -21 14 -7 14 6 0 13 -4 16 -10z m762 4
c-3 -3 -12 -4 -19 -1 -8 3 -5 6 6 6 11 1 17 -2 13 -5z m-933 -20 c4 -9 -8 -12
-40 -9 -24 2 -44 0 -44 -5 0 -4 -9 -6 -20 -3 -30 8 -24 21 13 26 54 7 86 3 91
-9z m-1935 -8 c9 -11 9 -16 -1 -22 -7 -4 -10 -4 -6 1 4 4 3 14 -3 22 -6 7 -9
13 -6 13 2 0 10 -6 16 -14z m55 -1 c-10 -8 -23 -15 -28 -15 -6 0 -1 7 10 15
10 8 23 15 28 15 6 0 1 -7 -10 -15z m2756 0 c7 -8 8 -15 2 -15 -5 0 -15 7 -22
15 -7 8 -8 15 -2 15 5 0 15 -7 22 -15z m55 -43 c-3 -3 -11 0 -18 7 -9 10 -8
11 6 5 10 -3 15 -9 12 -12z m1025 -53 c0 -5 -4 -9 -8 -9 -5 0 -9 7 -9 15 0 8
4 12 9 9 4 -3 8 -9 8 -15z m-3791 -26 c-5 -12 -69 4 -69 17 0 5 10 10 23 12
23 4 52 -14 46 -29z m2731 -4 c0 -9 -49 2 -56 12 -3 5 2 9 10 9 9 0 16 5 16
12 0 11 29 -21 30 -33z m134 -5 c4 -11 0 -11 -19 2 -30 20 -31 24 -6 17 11 -3
22 -11 25 -19z m920 1 c3 -8 1 -15 -4 -15 -6 0 -10 7 -10 15 0 8 2 15 4 15 2
0 6 -7 10 -15z m-1036 -70 c62 -25 46 -28 -38 -6 -40 10 -67 21 -59 24 19 7
46 2 97 -18z m-2743 6 c-11 -10 -87 -32 -92 -27 -2 2 11 11 29 19 36 18 78 23
63 8z m-1238 -27 c-3 -3 -12 -4 -19 -1 -8 3 -5 6 6 6 11 1 17 -2 13 -5z m1190
-20 c-3 -3 -12 -4 -19 -1 -8 3 -5 6 6 6 11 1 17 -2 13 -5z m-1187 -14 c0 -5
-4 -10 -10 -10 -5 0 -10 5 -10 10 0 6 5 10 10 10 6 0 10 -4 10 -10z m3965 -52
c6 -5 -11 1 -37 13 -27 13 -48 27 -48 31 0 8 68 -27 85 -44z m320 32 c10 -11
16 -20 13 -20 -3 0 -13 9 -23 20 -10 11 -16 20 -13 20 3 0 13 -9 23 -20z
m-3185 6 c0 -2 -9 -6 -20 -9 -11 -3 -18 -1 -14 4 5 9 34 13 34 5z m-1102 -37
c4 -24 3 -24 -12 -4 -19 24 -20 38 -3 33 6 -3 13 -15 15 -29z m1247 22 c-6 -5
-30 -23 -54 -40 -24 -17 -38 -31 -30 -31 8 0 23 7 33 15 11 8 29 15 40 15 17
0 15 -4 -13 -22 -45 -29 -112 -29 -169 1 -34 17 -47 20 -58 10 -8 -6 -14 -9
-14 -6 0 3 -3 14 -6 24 -4 11 -3 14 3 6 5 -7 22 -9 50 -4 24 5 41 4 40 -1 -1
-5 13 -15 31 -23 28 -12 32 -12 32 1 0 8 5 12 10 9 6 -4 31 7 57 24 45 30 67
40 48 22z m3511 -56 c-1 -43 -5 -65 -13 -65 -7 0 -16 -7 -21 -16 -8 -13 -10
-10 -14 15 -4 28 -2 32 14 28 10 -3 16 -1 12 4 -3 5 -12 9 -20 9 -27 0 -17 54
14 72 15 10 27 18 28 18 0 0 0 -29 0 -65z m-3769 -21 c-3 -3 -12 -4 -19 -1 -8
3 -5 6 6 6 11 1 17 -2 13 -5z m-1067 -36 c0 -16 -3 -19 -11 -11 -6 6 -8 16 -5
22 11 17 16 13 16 -11z m535 7 c16 0 12 -58 -5 -63 -13 -5 -13 -3 -1 11 12 15
11 17 -3 17 -9 0 -16 4 -16 9 0 5 -3 17 -7 27 -5 13 -3 15 8 8 8 -5 19 -9 24
-9z m-485 -20 c0 -8 -2 -15 -4 -15 -2 0 -6 7 -10 15 -3 8 -1 15 4 15 6 0 10
-7 10 -15z m1617 -11 c-3 -3 -12 -4 -19 -1 -8 3 -5 6 6 6 11 1 17 -2 13 -5z
m1840 -10 c-3 -3 -12 -4 -19 -1 -8 3 -5 6 6 6 11 1 17 -2 13 -5z m1333 -4 c0
-5 -4 -10 -9 -10 -6 0 -13 5 -16 10 -3 6 1 10 9 10 9 0 16 -4 16 -10z m115
-47 c-30 -42 -29 -38 0 20 11 21 21 34 23 28 2 -5 -9 -27 -23 -48z m-130 19
c13 -9 38 -82 31 -89 -3 -4 -6 -1 -6 5 0 7 -7 12 -16 12 -8 0 -12 4 -9 10 3 5
-1 23 -10 40 -15 29 -11 38 10 22z m98 -92 c-3 -11 -9 -17 -15 -14 -5 3 -4 12
3 20 16 19 18 18 12 -6z m-4333 -4 c0 -11 -19 -15 -25 -6 -3 5 1 10 9 10 9 0
16 -2 16 -4z m2002 -38 c-9 -9 -12 -7 -12 12 0 19 3 21 12 12 9 -9 9 -15 0
-24z m2248 -1 c0 -5 -4 -5 -10 -2 -5 3 -10 14 -10 23 0 15 2 15 10 2 5 -8 10
-19 10 -23z m177 -42 c-2 -5 -11 -10 -19 -10 -9 0 -25 -8 -35 -18 -19 -16 -33
-14 -33 5 0 5 5 6 12 2 8 -5 9 -2 4 11 -3 10 -3 33 0 52 l7 34 33 -32 c19 -18
33 -38 31 -44z m-2307 23 c0 -6 -6 -5 -15 2 -8 7 -15 14 -15 16 0 2 7 1 15 -2
8 -4 15 -11 15 -16z m759 -87 c19 -10 29 -21 23 -25 -6 -3 -13 -2 -17 4 -3 5
-22 10 -42 10 -30 0 -34 2 -23 15 15 19 17 18 59 -4z m1731 7 c0 -14 -18 -17
-34 -5 -14 11 -13 12 9 12 14 0 25 -3 25 -7z m-3310 -18 c11 -7 5 -8 -20 -4
-43 8 -51 14 -19 14 13 0 31 -5 39 -10z m3050 -10 c0 -5 -4 -10 -10 -10 -5 0
-10 5 -10 10 0 6 5 10 10 10 6 0 10 -4 10 -10z m-3005 -10 c3 -6 -1 -7 -9 -4
-18 7 -21 14 -7 14 6 0 13 -4 16 -10z m3190 0 c7 -12 -12 -40 -26 -40 -10 0
-12 34 -2 43 9 10 21 9 28 -3z m-5095 -29 c0 -4 11 -20 25 -33 21 -22 23 -27
10 -32 -9 -3 -13 -2 -10 4 3 6 -3 10 -13 10 -14 0 -21 8 -24 30 -3 17 -1 30 4
30 4 0 8 -4 8 -9z m1878 -38 c-10 -2 -26 -2 -35 0 -10 3 -2 5 17 5 19 0 27 -2
18 -5z m279 -25 c-3 -8 -6 -5 -6 6 -1 11 2 17 5 13 3 -3 4 -12 1 -19z m3097
-27 c-6 -6 -24 19 -24 34 1 6 7 1 15 -9 8 -11 12 -22 9 -25z m-5204 -18 c0
-25 -3 -33 -9 -25 -4 8 -11 13 -15 12 -4 -1 -12 1 -19 3 -6 3 -2 6 11 6 29 1
19 21 -11 22 -17 1 -15 3 8 9 17 4 31 8 33 9 1 0 2 -16 2 -36z m50 -13 c8 -15
6 -18 -8 -16 -9 2 -19 13 -20 26 -4 25 12 20 28 -10z m5080 0 c0 -5 -4 -10
-10 -10 -5 0 -10 5 -10 10 0 6 5 10 10 10 6 0 10 -4 10 -10z m-50 -13 c0 -2
-10 -12 -22 -23 l-23 -19 19 23 c18 21 26 27 26 19z m-1785 -17 c3 -6 -1 -7
-9 -4 -18 7 -21 14 -7 14 6 0 13 -4 16 -10z m-3305 -15 c6 -8 10 -20 7 -27 -4
-9 -6 -8 -6 3 -1 8 -13 20 -28 26 -24 9 -25 11 -7 12 12 1 27 -6 34 -14z m70
11 c0 -2 -8 -10 -17 -17 -16 -13 -17 -12 -4 4 13 16 21 21 21 13z m3175 -16
c3 -6 -1 -7 -9 -4 -18 7 -21 14 -7 14 6 0 13 -4 16 -10z m-1195 -10 c0 -5 -5
-10 -11 -10 -5 0 -7 5 -4 10 3 6 8 10 11 10 2 0 4 -4 4 -10z m-2065 -10 c3 -5
1 -10 -4 -10 -6 0 -11 5 -11 10 0 6 2 10 4 10 3 0 8 -4 11 -10z m2995 -4 c0
-3 -4 -8 -10 -11 -5 -3 -10 -1 -10 4 0 6 5 11 10 11 6 0 10 -2 10 -4z m-1190
-10 c0 -2 -7 -7 -16 -10 -8 -3 -12 -2 -9 4 6 10 25 14 25 6z m-1836 -35 c3 -5
0 -11 -8 -14 -8 -3 -17 1 -20 9 -6 15 19 20 28 5z m109 -56 c-23 -36 -41 -54
-50 -51 -8 4 -11 1 -8 -5 4 -6 14 -8 22 -5 8 3 12 2 8 -3 -3 -5 -1 -20 4 -33
5 -12 10 -27 11 -33 1 -5 6 -19 10 -30 6 -17 4 -21 -13 -22 -11 -1 -25 -10
-31 -20 -20 -35 -17 -57 11 -81 21 -18 23 -22 8 -17 -52 17 -56 16 -40 -15 13
-26 13 -28 -4 -23 -10 3 -22 0 -25 -6 -4 -5 -13 -8 -21 -4 -8 3 -15 1 -15 -5
0 -5 -13 -12 -30 -14 -24 -4 -27 -2 -19 9 7 7 20 13 30 13 22 0 29 10 34 53 4
32 3 34 -25 33 -21 -1 -31 -7 -35 -23 -3 -14 -13 -23 -25 -23 -10 0 -22 -4
-25 -10 -3 -6 4 -10 17 -10 18 0 20 -2 9 -9 -13 -8 -13 -14 -2 -38 7 -15 10
-25 6 -21 -7 6 -15 1 -50 -29 -20 -18 -27 7 -8 29 19 21 0 33 -20 13 -9 -8
-22 -15 -31 -15 -20 0 -31 -20 -12 -21 29 -3 34 -4 42 -11 4 -5 2 -8 -4 -8 -7
0 -12 -9 -12 -20 0 -14 -5 -18 -17 -13 -10 4 -14 2 -9 -5 3 -6 2 -14 -4 -17
-6 -4 -9 -1 -8 6 2 6 -3 14 -11 17 -8 3 -11 0 -7 -7 4 -7 2 -9 -8 -5 -8 3 -19
-3 -26 -15 -13 -25 -1 -52 32 -75 14 -10 17 -16 8 -16 -7 0 -24 10 -37 22 -17
16 -23 18 -24 7 -1 -8 -3 -21 -4 -29 -1 -8 -3 -21 -4 -27 0 -7 -9 -13 -18 -13
-17 -1 -17 -1 -1 -14 10 -7 15 -16 12 -19 -3 -3 -3 -11 1 -17 5 -8 11 -6 19 6
7 9 15 13 18 8 2 -5 -6 -19 -19 -31 -19 -18 -23 -19 -23 -6 0 16 -10 13 -13
-4 -3 -17 -60 -61 -74 -56 -9 3 -16 -2 -20 -15 -3 -11 -12 -23 -20 -27 -13 -4
-14 -3 -3 10 7 8 9 15 5 15 -4 0 4 15 19 34 l26 35 -22 25 c-13 13 -33 27 -46
31 -20 6 -22 4 -18 -21 7 -35 26 -47 42 -26 7 9 16 14 20 9 4 -4 2 -7 -4 -7
-7 0 -12 -7 -12 -15 0 -8 -5 -15 -11 -15 -5 0 -8 -4 -5 -9 3 -4 -4 -8 -17 -7
-19 1 -22 -4 -21 -37 1 -36 1 -37 -17 -21 -24 21 -25 38 -1 30 15 -5 15 -5 -1
8 -18 14 -18 15 0 24 14 9 15 13 6 23 -10 10 -20 9 -48 -4 -19 -9 -35 -13 -35
-8 0 6 8 12 19 16 13 4 17 12 13 30 -9 48 -42 24 -42 -30 0 -13 -4 -26 -9 -30
-13 -8 -24 12 -14 28 4 6 8 21 10 32 2 18 1 18 -9 -2 -6 -13 -14 -23 -18 -23
-12 0 -40 47 -40 66 0 21 -28 43 -55 44 -17 0 -18 2 -5 11 12 8 11 9 -6 4 -14
-4 -24 0 -28 10 -3 8 -12 15 -20 15 -11 0 -10 7 5 38 25 48 43 61 80 55 26 -4
37 3 84 51 29 31 65 60 79 66 36 13 33 37 -6 54 l-33 13 28 8 c15 4 40 5 55 2
33 -7 180 71 221 118 32 36 154 126 213 157 24 12 79 27 123 34 44 6 81 12 83
13 1 0 -14 -24 -35 -54z m3021 39 c8 -22 8 -24 -8 -24 -18 0 -29 16 -21 30 9
15 22 12 29 -6z m179 -33 c7 -8 -7 -2 -30 14 -24 15 -43 30 -43 32 0 7 61 -31
73 -46z m1952 4 c22 -13 71 -51 109 -84 39 -34 76 -59 83 -57 7 3 13 -2 13
-11 0 -23 50 -64 117 -99 49 -24 68 -29 121 -27 68 3 78 -5 32 -25 -22 -10
-29 -19 -26 -35 2 -18 10 -22 42 -24 34 -1 46 -8 94 -63 34 -37 61 -59 70 -56
8 2 30 7 49 10 31 6 33 5 27 -19 -7 -27 3 -32 22 -13 20 20 15 -12 -5 -36 -17
-20 -17 -20 1 -6 18 14 18 13 11 -20 -4 -19 -4 -32 0 -28 5 4 14 3 21 -3 11
-9 11 -16 -1 -39 -16 -31 -39 -51 -29 -26 3 9 -2 23 -11 32 -14 15 -18 15 -27
3 -7 -10 -8 -4 -4 21 l5 35 -20 -35 c-11 -19 -18 -28 -16 -19 3 9 1 22 -3 30
-7 11 -10 10 -16 -5 -4 -10 -2 -28 5 -38 7 -12 8 -17 2 -13 -6 3 -11 3 -12 -2
-4 -42 -19 -83 -19 -51 0 9 -7 21 -16 28 -8 8 -14 9 -13 4 4 -23 -2 -54 -11
-54 -5 0 -7 8 -3 18 6 16 5 16 -13 0 -14 -14 -15 -20 -6 -30 31 -31 -4 -24
-48 10 -3 2 3 8 13 13 9 6 16 20 16 32 -1 18 -2 19 -6 4 -4 -17 -6 -18 -24 -2
-20 19 -49 14 -49 -9 0 -9 6 -13 14 -10 8 3 17 1 20 -5 4 -5 -3 -12 -14 -16
-21 -7 -28 -25 -8 -25 14 0 48 -30 48 -42 0 -5 -7 -2 -16 6 -20 20 -35 12 -68
-37 -39 -57 -43 -84 -15 -114 13 -14 19 -23 13 -20 -6 4 -19 -2 -29 -13 -17
-19 -19 -19 -31 -2 -18 23 -17 51 1 58 20 8 19 34 -1 34 -13 0 -14 3 -4 15 7
8 16 12 21 10 12 -8 27 25 21 47 -4 17 -35 32 -58 27 -21 -4 -34 2 -43 19 -8
15 -5 17 29 17 23 0 36 -4 33 -10 -2 -5 3 -1 11 9 19 24 32 15 17 -12 -8 -15
-7 -21 3 -25 17 -7 40 36 33 62 -3 11 0 22 6 24 6 2 3 6 -6 10 -9 3 -17 2 -17
-4 0 -6 -4 -7 -10 -4 -5 3 -10 -1 -10 -10 0 -24 -27 -29 -47 -10 -11 12 -18
14 -21 6 -2 -6 -10 -11 -17 -11 -7 0 -15 -7 -19 -15 -3 -8 -12 -15 -21 -15
-12 0 -14 4 -5 19 13 25 13 51 -1 51 -5 0 -7 -6 -3 -12 5 -8 1 -8 -10 1 -14
12 -19 12 -25 2 -5 -7 -17 -11 -27 -9 -15 2 -11 8 19 25 26 16 37 29 36 45 -1
18 -2 19 -6 5 -3 -11 -10 -16 -20 -13 -8 3 -21 6 -29 6 -8 0 -14 5 -14 10 0 6
6 10 14 10 8 0 18 4 21 10 7 11 13 80 7 80 -12 0 -31 -31 -26 -44 10 -27 -5
-17 -20 13 -15 28 -15 29 7 24 19 -4 20 -3 5 7 -10 6 -18 18 -18 25 0 8 -5 15
-11 15 -5 0 -7 5 -4 10 3 6 1 10 -4 10 -6 0 -11 -7 -11 -15 0 -22 -28 -6 -32
18 -2 14 -11 23 -27 25 -19 3 -21 6 -10 13 12 7 12 9 -1 9 -18 1 -70 39 -52
40 23 0 12 30 -18 45 -37 19 -39 28 -5 19 33 -8 32 1 -7 36 -34 32 -48 31 -47
-3 1 -12 -5 -37 -12 -55 -12 -28 -12 -34 1 -42 8 -5 11 -12 7 -17 -5 -4 -11
-3 -15 3 -4 6 -15 14 -25 17 -18 7 -18 8 2 40 26 42 12 65 -25 40 -13 -8 -28
-12 -34 -8 -14 9 -2 25 14 19 26 -10 29 18 5 38 -13 11 -19 17 -13 14 7 -3 14
3 17 14 3 12 0 20 -7 20 -7 0 -13 7 -13 15 0 9 5 14 11 12 16 -6 48 12 41 24
-4 5 -17 9 -30 9 -18 0 -22 4 -18 20 3 11 10 17 15 14 18 -11 -2 39 -33 84
l-30 44 68 -7 c42 -4 83 -16 108 -30z m-135 -199 c0 -3 -4 -8 -10 -11 -5 -3
-10 -1 -10 4 0 6 5 11 10 11 6 0 10 -2 10 -4z m-5023 -65 c-6 -2 -13 1 -15 8
-2 6 -7 9 -12 6 -7 -4 -7 4 -1 34 1 2 10 -7 20 -20 13 -16 15 -25 8 -28z
m5183 -91 c0 -5 -9 -10 -21 -10 -11 0 -17 5 -14 10 3 6 13 10 21 10 8 0 14 -4
14 -10z m-5125 -10 c3 -5 -1 -10 -9 -10 -9 0 -16 5 -16 10 0 6 4 10 9 10 6 0
13 -4 16 -10z m-145 -20 c0 -5 -4 -10 -10 -10 -5 0 -9 -3 -9 -7 1 -5 0 -11 -1
-15 -4 -13 -7 -27 -9 -38 -2 -14 -18 -12 -24 3 -8 20 20 77 38 77 8 0 15 -4
15 -10z m5243 -35 c1 -24 -3 -40 -11 -42 -9 -4 -10 1 -2 21 8 21 7 28 -5 33
-12 4 -13 8 -4 19 16 19 19 14 22 -31z m-3 -70 c-7 -9 -15 -13 -19 -10 -3 3 1
10 9 15 21 14 24 12 10 -5z m-5275 -23 c-3 -3 -11 0 -18 7 -9 10 -8 11 6 5 10
-3 15 -9 12 -12z m-15 -41 c-1 -13 -3 -13 -15 3 -19 26 -19 42 0 26 8 -7 15
-20 15 -29z m-734 -57 c-3 -7 0 -16 6 -20 7 -4 8 -3 4 4 -5 8 0 12 13 12 11 0
23 -5 27 -12 4 -6 3 -8 -4 -4 -6 3 -14 -3 -17 -15 -7 -20 -8 -20 -41 12 -32
31 -47 58 -24 44 6 -3 10 -1 10 6 0 8 4 8 15 -1 9 -7 14 -19 11 -26z m6214 10
c0 -8 -4 -12 -10 -9 -5 3 -10 10 -10 16 0 5 5 9 10 9 6 0 10 -7 10 -16z
m-5720 -45 c0 -6 -4 -7 -10 -4 -5 3 -10 11 -10 16 0 6 5 7 10 4 6 -3 10 -11
10 -16z m5555 1 c3 -5 2 -10 -4 -10 -5 0 -13 5 -16 10 -3 6 -2 10 4 10 5 0 13
-4 16 -10z m744 -167 c12 -24 17 -43 11 -43 -10 0 -19 18 -35 70 -10 33 -2 24
24 -27z m-6808 10 c-12 -20 -14 -14 -5 12 4 9 9 14 11 11 3 -2 0 -13 -6 -23z
m6407 -30 c-10 -12 -13 -12 -20 1 -13 23 0 40 18 25 11 -9 12 -15 2 -26z
m-6397 4 c-10 -9 -11 -8 -5 6 3 10 9 15 12 12 3 -3 0 -11 -7 -18z m-38 -27
c-5 -19 -23 -39 -23 -25 0 9 20 45 24 45 2 0 2 -9 -1 -20z m6810 -9 c8 -16 11
-34 7 -41 -5 -8 -9 -4 -12 12 -3 12 -9 31 -13 41 -12 28 2 19 18 -12z m-6786
-13 c-3 -8 -6 -5 -6 6 -1 11 2 17 5 13 3 -3 4 -12 1 -19z m63 18 c0 -2 -8 -10
-17 -17 -16 -13 -17 -12 -4 4 13 16 21 21 21 13z m6694 -42 c3 -8 2 -12 -4 -9
-6 3 -10 10 -10 16 0 14 7 11 14 -7z m-6407 -18 c-4 -9 2 -17 13 -21 10 -3 21
-13 25 -22 5 -15 4 -15 -13 0 -10 9 -26 17 -35 17 -15 0 -15 3 -5 20 15 23 23
26 15 6z m6551 -31 c-3 -3 -9 2 -12 12 -6 14 -5 15 5 6 7 -7 10 -15 7 -18z
m-6967 -38 c-10 -9 -11 -8 -5 6 3 10 9 15 12 12 3 -3 0 -11 -7 -18z m7011 -31
c5 -23 4 -24 -18 -9 -18 12 -21 17 -11 28 15 17 23 11 29 -19z m-6542 10 c0
-8 -5 -18 -12 -22 -7 -5 -8 -3 -3 6 4 7 2 16 -6 21 -11 7 -10 9 4 9 9 0 17 -6
17 -14z m6510 -47 c0 -18 -10 -8 -25 24 l-16 32 21 -24 c11 -13 20 -27 20 -32z
m-141 11 c-12 -32 -29 -32 -29 0 0 16 11 27 32 29 4 1 2 -12 -3 -29z m-6901
-12 c-12 -9 -26 -14 -31 -11 -5 3 -15 -3 -23 -13 -11 -13 -10 -10 2 12 13 24
23 31 45 30 l29 -1 -22 -17z m6969 -10 c-3 -7 -5 -2 -5 12 0 14 2 19 5 13 2
-7 2 -19 0 -25z m59 -15 c23 -31 24 -34 5 -18 -22 19 -46 55 -38 55 3 0 17
-17 33 -37z m60 -5 c-9 -5 -13 -14 -9 -21 4 -7 0 -6 -10 2 -16 13 -16 14 0 26
10 7 22 11 27 8 5 -3 1 -10 -8 -15z m-7046 -2 c0 -2 -8 -10 -17 -17 -16 -13
-17 -12 -4 4 13 16 21 21 21 13z m-1040 -16 c13 -8 13 -10 -2 -10 -9 0 -20 5
-23 10 -8 13 5 13 25 0z m7913 -5 c-3 -9 -8 -14 -10 -11 -3 3 -2 9 2 15 9 16
15 13 8 -4z m-6993 -15 c-6 -11 -13 -20 -16 -20 -2 0 0 9 6 20 6 11 13 20 16
20 2 0 0 -9 -6 -20z m40 0 c0 -5 -2 -10 -4 -10 -3 0 -8 5 -11 10 -3 6 -1 10 4
10 6 0 11 -4 11 -10z m70 -10 c0 -5 -2 -10 -4 -10 -3 0 -8 5 -11 10 -3 6 -1
10 4 10 6 0 11 -4 11 -10z m7070 0 c0 -5 -2 -10 -4 -10 -3 0 -8 5 -11 10 -3 6
-1 10 4 10 6 0 11 -4 11 -10z m97 -93 c29 -41 49 -78 45 -82 -4 -5 -2 -5 5 -1
7 4 27 -14 51 -46 21 -29 46 -59 55 -67 10 -7 17 -19 17 -27 0 -7 20 -33 45
-57 48 -48 59 -79 25 -70 -11 3 -20 9 -20 14 0 5 -9 9 -20 9 -11 0 -20 4 -20
10 0 5 7 7 16 3 15 -5 15 -3 -1 20 -19 30 -35 35 -35 12 0 -8 -5 -15 -11 -15
-6 0 -10 15 -9 33 4 63 2 67 -23 58 -13 -5 -35 -7 -49 -4 -23 4 -25 8 -15 23
9 15 7 23 -7 39 -22 24 -41 28 -32 6 3 -8 1 -15 -4 -15 -16 0 -11 -30 5 -36 8
-4 15 -13 15 -21 0 -13 -2 -13 -16 -2 -23 19 -34 52 -22 67 6 6 7 12 4 12 -4
0 0 7 9 17 20 19 14 71 -11 89 -8 7 -14 16 -12 20 3 9 -27 59 -49 82 -7 7 -13
16 -13 19 0 13 29 -21 77 -90z m-7247 38 c-7 -9 -15 -13 -19 -10 -3 3 1 10 9
15 21 14 24 12 10 -5z m-88 -32 c-5 -10 -7 -24 -5 -31 3 -7 1 -11 -4 -10 -14
5 -48 -36 -49 -60 0 -19 7 -26 27 -24 3 1 6 -5 6 -12 0 -8 -9 -11 -24 -8 -20
4 -23 0 -23 -26 0 -37 -22 -59 -39 -38 -15 18 -49 9 -63 -18 -6 -11 -20 -32
-32 -46 -14 -16 -15 -20 -3 -11 12 10 17 10 17 2 0 -19 -52 -62 -67 -56 -8 2
-11 0 -8 -5 7 -11 -22 -26 -32 -16 -3 3 15 31 41 62 25 31 46 62 46 69 0 8 18
29 40 48 22 19 40 37 40 42 0 9 62 80 69 79 3 0 19 20 34 44 27 42 49 54 29
15z m116 2 c-6 -14 -13 -23 -15 -21 -5 5 15 46 22 46 3 0 -1 -11 -7 -25z
m5452 -62 c0 -20 -38 -16 -49 6 -6 10 -8 21 -5 24 10 9 54 -15 54 -30z m-3757
13 c7 -18 -1 -26 -27 -26 -28 0 -50 15 -42 29 10 16 63 14 69 -3z m5448 -3
c13 -16 12 -17 -3 -4 -10 7 -18 15 -18 17 0 8 8 3 21 -13z m-8028 -70 c-8 -52
-13 -54 -13 -5 0 23 4 42 9 42 6 0 7 -17 4 -37z m1008 -10 c13 -16 12 -17 -3
-4 -10 7 -18 15 -18 17 0 8 8 3 21 -13z m-508 -25 c26 -35 46 -70 31 -53 -5 6
-25 27 -43 48 -19 20 -30 37 -23 37 6 0 22 -15 35 -32z m247 -28 c0 -5 -2 -10
-4 -10 -3 0 -8 5 -11 10 -3 6 -1 10 4 10 6 0 11 -4 11 -10z m1665 -17 c-52
-21 -94 -49 -123 -82 -20 -22 -22 -23 -13 -4 20 39 118 101 161 102 8 0 -3 -7
-25 -16z m4068 -4 c54 -28 104 -66 111 -85 3 -9 -14 2 -39 24 -24 21 -68 49
-97 60 -29 11 -45 21 -35 21 10 1 37 -9 60 -20z m-6434 -64 c16 -32 22 -58 19
-86 -2 -27 0 -39 9 -39 7 0 13 -5 13 -11 0 -5 -5 -7 -10 -4 -6 3 -13 -1 -17
-10 -3 -10 0 -21 8 -26 20 -13 27 -11 31 7 2 13 6 12 23 -7 19 -22 19 -22 1
-15 -12 4 -23 2 -27 -6 -7 -10 -14 -10 -36 2 -32 18 -41 51 -18 70 22 18 18
67 -10 128 -30 64 -19 62 14 -3z m7586 35 c3 -5 1 -10 -4 -10 -6 0 -11 5 -11
10 0 6 2 10 4 10 3 0 8 -4 11 -10z m-6935 -29 c0 -5 -7 -11 -14 -14 -10 -4
-13 -1 -9 9 6 15 23 19 23 5z m4507 -6 c0 -8 -4 -12 -9 -9 -5 3 -6 10 -3 15 9
13 12 11 12 -6z m2934 -24 c-17 -11 4 -25 22 -15 9 5 9 4 1 -5 -8 -9 -17 -9
-37 0 l-27 12 23 12 c24 13 40 9 18 -4z m-7511 -31 c0 -14 -18 -21 -25 -10 -3
5 -1 10 6 10 7 0 4 7 -7 16 -18 14 -18 15 4 4 12 -6 22 -15 22 -20z m88 2 c2
-7 -1 -12 -6 -12 -18 0 -42 12 -42 21 0 13 43 4 48 -9z m7522 8 c0 -5 -2 -10
-4 -10 -3 0 -8 5 -11 10 -3 6 -1 10 4 10 6 0 11 -4 11 -10z m-5673 -17 c7 -19
-29 -32 -57 -20 -20 8 -22 11 -7 14 9 3 17 9 17 14 0 14 43 7 47 -8z m3770 -4
c2 -23 -22 -32 -37 -13 -10 11 -9 14 6 14 16 0 17 2 4 10 -12 7 -11 9 6 8 11
-1 21 -10 21 -19z m132 -23 c0 -6 -3 -5 -6 3 -4 10 -7 10 -13 1 -5 -7 -9 -2
-12 14 -5 26 -5 26 13 10 11 -9 19 -22 18 -28z m118 2 c-3 -7 -5 -2 -5 12 0
14 2 19 5 13 2 -7 2 -19 0 -25z m1592 -4 c-6 -8 -21 -14 -33 -14 -20 0 -20 1
4 19 27 21 48 18 29 -5z m-7529 7 c0 -6 -4 -13 -10 -16 -5 -3 -10 1 -10 9 0 9
5 16 10 16 6 0 10 -4 10 -9z m133 1 c3 -4 -4 -18 -16 -32 -16 -20 -19 -21 -12
-5 4 11 8 26 8 33 0 13 13 16 20 4z m6837 4 c0 -3 -4 -8 -10 -11 -5 -3 -10 -1
-10 4 0 6 5 11 10 11 6 0 10 -2 10 -4z m-7000 -16 c0 -5 -4 -10 -10 -10 -5 0
-10 5 -10 10 0 6 5 10 10 10 6 0 10 -4 10 -10z m690 0 c0 -5 -7 -7 -15 -4 -8
4 -15 8 -15 10 0 2 7 4 15 4 8 0 15 -4 15 -10z m-610 -22 c0 -17 -20 -48 -32
-48 -6 0 -4 7 5 18 11 12 13 22 6 34 -8 14 -7 16 6 12 8 -3 15 -10 15 -16z
m7401 -1 c-10 -9 -11 -8 -5 6 3 10 9 15 12 12 3 -3 0 -11 -7 -18z m-3010 -24
c13 -16 12 -17 -3 -4 -10 7 -18 15 -18 17 0 8 8 3 21 -13z m2949 2 c0 -9 7
-18 15 -21 18 -7 20 -24 3 -24 -16 0 -48 31 -48 47 0 7 7 13 15 13 8 0 15 -7
15 -15z m388 -43 c-2 -9 -9 -17 -17 -20 -8 -3 -11 0 -7 7 9 14 5 14 -31 1 -26
-10 -27 -9 -8 5 17 14 18 17 5 25 -13 8 -12 10 3 10 9 0 16 3 16 8 -4 23 4 24
22 3 11 -13 19 -31 17 -39z m-7621 10 c-27 -26 -27 -26 -27 -4 0 13 4 21 9 18
5 -3 14 1 21 9 7 9 15 13 18 10 3 -3 -6 -18 -21 -33z m-348 14 c9 -11 8 -17
-4 -29 -8 -9 -15 -21 -15 -27 0 -17 -53 -8 -58 10 -4 13 -3 13 10 2 10 -8 19
-9 22 -4 3 6 -1 15 -9 22 -12 10 -13 16 -4 26 15 18 43 18 58 0z m7711 11 c0
-2 -9 -12 -20 -22 -24 -21 -27 -14 -4 9 15 15 24 20 24 13z m299 -54 c-15 -28
-51 -52 -47 -31 2 7 12 17 22 23 11 5 21 16 24 24 3 9 0 11 -9 5 -11 -6 -11
-4 1 10 20 25 26 2 9 -31z m-3394 9 c-3 -3 -11 0 -18 7 -9 10 -8 11 6 5 10 -3
15 -9 12 -12z m3105 -11 c0 -5 -7 -12 -16 -15 -14 -5 -15 -4 -4 9 14 17 20 19
20 6z m-7508 -15 c7 4 8 2 4 -5 -4 -6 -12 -9 -17 -6 -5 4 -9 1 -9 -6 0 -7 -3
-10 -6 -6 -4 3 -3 14 1 24 5 12 9 14 12 5 3 -6 10 -9 15 -6z m168 5 c0 -5 -7
-12 -16 -15 -14 -5 -15 -4 -4 9 14 17 20 19 20 6z m7178 -16 c-3 -3 -9 2 -12
12 -6 14 -5 15 5 6 7 -7 10 -15 7 -18z m194 -7 c-8 -8 -9 -4 -5 13 4 13 8 18
11 10 2 -7 -1 -18 -6 -23z m-7975 -119 c33 -31 58 -48 61 -41 7 22 23 13 18
-10 -3 -13 -3 -17 0 -10 3 6 10 10 15 6 5 -3 9 -1 9 5 0 5 -4 12 -9 15 -10 7
-8 82 3 93 4 4 15 3 24 -3 22 -14 42 -7 42 16 0 33 52 58 78 37 14 -11 17 -31
3 -23 -5 4 -7 -3 -4 -14 3 -11 12 -20 20 -20 16 0 10 -30 -14 -69 -8 -12 -13
-32 -10 -42 3 -10 0 -22 -5 -26 -7 -3 -8 -1 -4 5 11 19 -12 14 -26 -5 -14 -18
-78 -56 -78 -47 0 10 44 43 58 44 19 0 14 18 -8 25 -19 6 -17 10 20 54 22 26
40 51 40 56 0 5 -12 -8 -27 -28 -33 -44 -69 -71 -83 -62 -6 4 -9 1 -8 -6 2 -6
-10 -16 -26 -21 -26 -10 -32 -6 -86 50 -63 65 -120 139 -120 155 0 6 13 -10
30 -35 16 -25 55 -69 87 -99z m537 111 c-6 -6 -10 -2 -11 12 -2 16 1 18 10 9
7 -7 8 -14 1 -21z m7386 -17 c0 -9 -8 -13 -22 -11 -25 4 -37 28 -13 28 10 0
13 5 9 13 -5 8 -2 8 9 -2 9 -7 17 -20 17 -28z m280 2 c19 -7 27 -14 17 -14
-16 -1 -16 -3 -3 -29 8 -16 22 -35 32 -43 16 -13 16 -12 6 8 -8 14 -9 24 -2
28 6 4 8 11 5 16 -3 5 1 6 9 3 18 -7 23 -24 25 -88 0 -40 -2 -46 -13 -37 -15
13 -49 23 -81 24 -25 1 -44 25 -38 47 2 9 -3 23 -13 31 -16 13 -16 12 -6 -8
17 -30 14 -42 -3 -19 -8 11 -15 16 -15 11 0 -5 7 -17 17 -27 9 -10 11 -18 6
-18 -18 0 -36 29 -29 47 4 9 1 20 -5 24 -7 4 -13 17 -14 28 -1 11 2 18 7 15 5
-4 7 -13 4 -21 -3 -8 -1 -11 5 -8 5 4 7 15 4 26 -5 16 -2 19 22 18 15 0 44 -7
63 -14z m-2010 -23 c0 -8 -1 -13 -3 -11 -1 2 -9 12 -16 22 -12 15 -12 17 3 11
9 -3 16 -13 16 -22z m-5703 3 c0 -8 -4 -12 -9 -9 -4 3 -8 9 -8 15 0 5 4 9 8 9
5 0 9 -7 9 -15z m63 -5 c8 -5 12 -11 9 -14 -3 -3 -14 1 -25 9 -21 16 -8 20 16
5z m6890 -15 c0 -8 -2 -15 -4 -15 -2 0 -6 7 -10 15 -3 8 -1 15 4 15 6 0 10 -7
10 -15z m503 0 c-3 -9 -8 -14 -10 -11 -3 3 -2 9 2 15 9 16 15 13 8 -4z m-7133
-66 c0 -4 -13 5 -30 19 -16 15 -30 30 -30 34 0 5 14 -4 30 -19 17 -14 30 -30
30 -34z m5410 -19 c0 -3 -8 9 -19 25 -10 17 -16 36 -13 43 4 11 31 -48 32 -68z
m1190 76 c0 -3 -4 -8 -10 -11 -5 -3 -10 -1 -10 4 0 6 5 11 10 11 6 0 10 -2 10
-4z m-2007 -13 c-7 -2 -19 -2 -25 0 -7 3 -2 5 12 5 14 0 19 -2 13 -5z m-3092
-14 c46 -24 43 -93 -6 -125 -54 -35 -148 -53 -102 -19 10 7 17 17 17 23 0 6 6
13 13 15 7 3 5 6 -6 6 -17 1 -17 2 0 25 10 13 21 22 26 19 4 -2 6 1 5 9 -2 7
7 14 20 16 29 4 29 22 -1 22 -31 0 -70 -42 -71 -79 -1 -31 -16 -32 -16 -1 0
35 24 73 55 86 37 16 42 17 66 3z m3838 -24 c38 -32 55 -82 41 -119 -8 -23
-14 -26 -37 -20 -109 25 -157 112 -85 153 27 16 48 13 81 -14z m1951 16 c0 -6
-4 -13 -10 -16 -5 -3 -10 1 -10 9 0 9 5 16 10 16 6 0 10 -4 10 -9z m-7613 -16
c0 -8 -4 -12 -9 -9 -5 3 -6 10 -3 15 9 13 12 11 12 -6z m1636 -2 c18 -10 34
-19 36 -20 2 -2 2 -6 -2 -9 -3 -3 -23 6 -44 20 -43 30 -37 35 10 9z m4152 -13
c-10 -11 -20 -18 -23 -15 -3 3 3 14 13 25 10 11 20 18 23 15 3 -3 -3 -14 -13
-25z m1575 -6 c0 -2 -7 -4 -15 -4 -8 0 -15 4 -15 10 0 5 7 7 15 4 8 -4 15 -8
15 -10z m30 1 c0 -8 -2 -15 -4 -15 -2 0 -6 7 -10 15 -3 8 -1 15 4 15 6 0 10
-7 10 -15z m228 -25 c7 -11 11 -20 9 -20 -2 0 -12 9 -22 20 -10 11 -14 20 -9
20 5 0 15 -9 22 -20z m-5965 -7 c-19 -7 -16 -27 7 -48 11 -10 20 -22 20 -28 0
-5 -28 -39 -62 -76 -90 -95 -141 -159 -134 -169 7 -11 -38 -78 -58 -85 -8 -3
-20 1 -26 8 -10 12 -2 25 41 68 30 30 93 96 141 149 l87 95 -24 39 c-25 41
-24 54 3 53 11 0 12 -3 5 -6z m5711 -5 c-3 -4 -14 -8 -24 -8 -10 0 -21 4 -24
8 -3 5 8 9 24 9 16 0 27 -4 24 -9z m336 2 c0 -5 -2 -10 -4 -10 -3 0 -8 5 -11
10 -3 6 -1 10 4 10 6 0 11 -4 11 -10z m61 -7 c2 1 3 0 1 -2 -7 -12 -39 -9 -39
4 0 10 5 11 17 5 10 -5 19 -8 21 -7z m-7950 -14 c6 -13 7 -19 1 -15 -6 3 -12
-1 -14 -11 -2 -12 -6 -10 -16 12 -12 26 -12 27 4 14 16 -12 17 -12 11 4 -9 24
0 21 14 -4z m5963 -33 l-18 -36 50 -53 c80 -83 104 -111 98 -117 -4 -3 -18 11
-32 30 -15 19 -50 58 -79 85 -29 28 -53 55 -53 61 0 6 9 23 21 38 11 14 17 31
13 38 -5 10 -4 10 5 2 9 -9 8 -19 -5 -48z m1924 -2 c-8 -7 -47 9 -52 21 -3 10
3 9 25 -2 17 -8 29 -17 27 -19z m47 -4 c-3 -5 -12 -10 -18 -10 -7 0 -6 4 3 10
19 12 23 12 15 0z m-155 -4 c0 -2 -8 -10 -17 -17 -16 -13 -17 -12 -4 4 13 16
21 21 21 13z m-7858 -24 c-18 -6 -4 -22 19 -22 13 0 18 4 13 12 -5 7 -3 8 5 3
7 -4 9 -11 4 -15 -12 -12 -50 -16 -51 -5 0 5 -9 12 -19 16 -17 7 -17 8 0 8 9
1 17 6 17 12 0 5 5 7 12 3 9 -6 9 -9 0 -12z m7963 -2 c-3 -5 -11 -10 -16 -10
-6 0 -7 5 -4 10 3 6 11 10 16 10 6 0 7 -4 4 -10z m-45 -10 c0 -5 -5 -10 -11
-10 -5 0 -7 5 -4 10 3 6 8 10 11 10 2 0 4 -4 4 -10z m62 -26 c-9 -7 -19 -10
-22 -7 -3 3 1 8 8 10 6 3 12 12 12 21 0 14 2 15 9 3 7 -10 4 -19 -7 -27z m-9
-15 c18 14 64 -16 48 -32 -6 -6 -11 -19 -11 -30 0 -15 -2 -16 -13 -5 -7 7 -16
21 -20 31 -7 18 -37 24 -37 7 0 -5 -7 -7 -15 -4 -13 5 -13 10 2 35 17 28 18
29 25 8 6 -16 11 -19 21 -10z m-8010 -18 c-6 -3 -15 -15 -21 -26 -10 -18 -11
-15 -12 19 0 33 2 37 15 26 12 -10 15 -9 16 6 1 18 1 18 6 0 3 -10 1 -21 -4
-25z m-43 4 c0 -17 -4 -23 -15 -19 -11 5 -12 10 -2 25 15 25 17 24 17 -6z
m-56 -4 c7 -11 -3 -41 -14 -41 -11 0 -21 30 -14 41 3 5 9 9 14 9 5 0 11 -4 14
-9z m8216 0 c0 -5 3 -16 6 -25 4 -11 1 -16 -11 -16 -13 0 -16 6 -12 21 4 16 3
18 -9 8 -11 -9 -14 -8 -14 5 0 9 8 16 20 16 11 0 20 -4 20 -9z m-8056 -20 c3
-4 -5 -18 -18 -30 -21 -19 -24 -20 -36 -6 -11 13 -10 14 4 9 18 -7 49 13 40
27 -3 5 -3 9 0 9 3 0 7 -4 10 -9z m1966 -34 c0 -10 5 -28 11 -39 9 -17 13 -18
20 -7 7 11 9 9 9 -6 1 -11 7 -37 14 -58 20 -55 -6 -30 -38 37 -25 52 -45 135
-26 106 5 -8 10 -23 10 -33z m3985 1 c-7 -41 -54 -142 -62 -134 -3 2 9 36 26
74 17 39 31 77 31 86 0 9 3 16 6 16 3 0 3 -19 -1 -42z m1525 18 c0 -2 -8 -10
-17 -17 -16 -13 -17 -12 -4 4 13 16 21 21 21 13z m420 -19 c0 -2 -10 -12 -22
-23 l-23 -19 19 23 c18 21 26 27 26 19z m-465 -15 c-6 -5 -39 -29 -75 -54 -36
-25 -103 -79 -150 -119 -47 -40 -69 -56 -50 -35 45 48 150 134 220 180 51 34
76 46 55 28z m-7405 -16 c0 -3 -4 -8 -10 -11 -5 -3 -10 -1 -10 4 0 6 5 11 10
11 6 0 10 -2 10 -4z m4115 -16 c-3 -5 -10 -10 -16 -10 -5 0 -9 5 -9 10 0 6 7
10 16 10 8 0 12 -4 9 -10z m1345 -10 c12 -8 9 -10 -10 -8 -18 2 -25 -2 -25
-14 0 -9 -4 -20 -8 -24 -4 -4 -7 2 -7 12 0 19 17 44 30 44 3 0 12 -5 20 -10z
m740 -68 c30 -31 67 -67 82 -79 17 -14 25 -28 22 -37 -5 -14 -9 -14 -33 -2
-15 8 -36 26 -46 40 -11 14 -25 26 -32 26 -12 0 -47 52 -58 88 -10 35 5 26 65
-36z m-730 -8 c-7 -7 -18 -14 -24 -14 -6 0 -3 5 7 11 9 5 18 22 18 37 2 24 2
25 6 4 3 -13 -1 -30 -7 -38z m-5473 21 c-23 -22 -33 -18 -12 5 10 11 20 18 23
16 2 -3 -3 -12 -11 -21z m7855 4 c-5 -18 -32 -49 -44 -49 -5 0 -6 9 -3 20 3
11 2 20 -4 20 -5 0 -12 -8 -14 -17 -4 -16 -5 -16 -6 -1 0 9 5 23 13 31 18 18
62 15 58 -4z m-2452 -5 c0 -8 -4 -12 -10 -9 -5 3 -10 10 -10 16 0 5 5 9 10 9
6 0 10 -7 10 -16z m-29 -21 c13 -16 12 -17 -3 -4 -10 7 -18 15 -18 17 0 8 8 3
21 -13z m-5364 -15 c-3 -8 -6 -5 -6 6 -1 11 2 17 5 13 3 -3 4 -12 1 -19z
m8111 -3 c-3 -3 -9 2 -12 12 -6 14 -5 15 5 6 7 -7 10 -15 7 -18z m30 -20 c-3
-3 -9 2 -12 12 -6 14 -5 15 5 6 7 -7 10 -15 7 -18z m-6540 -29 c0 -18 -5 -23
-17 -19 -30 11 -32 15 -14 29 25 19 31 17 31 -10z m-1948 10 c0 -3 -4 -8 -10
-11 -5 -3 -10 -1 -10 4 0 6 5 11 10 11 6 0 10 -2 10 -4z m1905 -44 c-6 -7 -34
11 -29 19 3 5 11 3 19 -4 7 -6 12 -13 10 -15z m6550 10 c-3 -3 -11 0 -18 7 -9
10 -8 11 6 5 10 -3 15 -9 12 -12z m-8398 -14 c-3 -8 -6 -5 -6 6 -1 11 2 17 5
13 3 -3 4 -12 1 -19z m-71 -15 c8 -19 11 -29 13 -51 1 -8 8 -11 19 -8 28 9 46
-8 33 -30 -9 -17 -10 -17 -11 -1 0 9 -8 17 -17 17 -15 0 -16 -2 -3 -10 10 -6
-10 -7 -56 -3 -65 5 -73 4 -83 -14 -6 -12 -18 -23 -28 -27 -10 -3 1 12 24 34
39 37 83 53 83 30 0 -16 17 -12 24 6 3 8 2 13 -3 9 -5 -3 -20 0 -33 5 -22 10
-22 10 4 5 23 -4 27 -2 25 12 -1 10 -6 24 -10 31 -5 6 -4 12 1 12 6 0 13 -8
18 -17z m399 -1 c-3 -3 -11 0 -18 7 -9 10 -8 11 6 5 10 -3 15 -9 12 -12z
m8120 -12 c3 -5 2 -10 -4 -10 -5 0 -13 5 -16 10 -3 6 -2 10 4 10 5 0 13 -4 16
-10z m-6668 -16 c-3 -3 -12 -4 -19 -1 -8 3 -5 6 6 6 11 1 17 -2 13 -5z m6610
0 c-3 -3 -12 -4 -19 -1 -8 3 -5 6 6 6 11 1 17 -2 13 -5z m131 -40 c47 -43 57
-64 31 -64 -6 0 -8 4 -5 8 3 5 -2 19 -10 31 -14 19 -21 21 -62 15 -26 -4 -58
-11 -71 -16 -17 -6 -27 -5 -33 4 -6 10 -10 10 -17 -2 -6 -8 -14 -11 -18 -6 -4
5 -2 11 5 13 7 3 22 14 32 25 11 12 24 17 31 13 7 -5 10 -4 5 3 -4 7 6 12 26
15 18 2 34 5 34 5 1 1 24 -19 52 -44z m-1168 32 c0 -2 -8 -10 -17 -17 -16 -13
-17 -12 -4 4 13 16 21 21 21 13z m-7317 -41 c-22 -17 -30 -11 -13 10 7 8 17
12 22 9 5 -3 1 -12 -9 -19z m5165 -17 c3 -15 -4 -18 -32 -18 -28 0 -34 -3 -29
-16 5 -13 2 -15 -15 -9 -13 4 -22 2 -22 -4 0 -6 -6 -11 -14 -11 -8 0 -17 -8
-19 -17 -3 -10 -5 8 -6 40 l-1 58 67 -3 c55 -2 68 -6 71 -20z m101 3 c19 -19
19 -61 -1 -61 -5 0 -4 -9 2 -20 9 -16 8 -20 -7 -21 -12 -1 -10 -3 7 -9 l25 -8
-27 -1 c-50 -2 -58 7 -40 40 15 27 16 31 1 42 -8 7 -18 20 -22 30 -4 10 -11
15 -17 12 -5 -3 -10 -1 -10 4 0 19 69 12 89 -8z m2011 5 c0 -2 -8 -10 -17 -17
-16 -13 -17 -12 -4 4 13 16 21 21 21 13z m-2330 -170 c0 -2 -7 -7 -16 -10 -8
-3 -12 -2 -9 4 6 10 25 14 25 6z m44 -5 c4 -5 -3 -7 -14 -4 -23 6 -26 13 -6
13 8 0 17 -4 20 -9z m-25 -51 c0 -10 -2 -11 -6 -2 -2 6 -8 10 -13 7 -4 -3 -6
4 -3 16 4 16 8 17 14 7 5 -7 8 -20 8 -28z m271 18 c0 -9 4 -8 10 2 9 13 11 13
20 0 5 -8 10 -10 10 -5 0 6 31 11 69 13 62 3 71 1 81 -18 6 -11 16 -20 22 -20
9 0 9 3 0 12 -19 19 -14 25 23 26 l35 1 0 -69 c0 -39 1 -73 3 -77 2 -9 -39
-17 -56 -10 -7 2 -16 5 -22 7 -5 1 -16 6 -22 12 -10 8 -13 6 -14 -8 0 -13 -2
-14 -6 -5 -4 9 -8 10 -12 3 -4 -6 -17 -9 -29 -6 -24 7 -25 40 -2 54 7 4 14 21
16 37 3 26 2 27 -11 9 -8 -10 -21 -16 -29 -13 -10 4 -13 1 -10 -7 3 -9 -4 -11
-26 -8 -27 4 -44 22 -20 22 6 0 10 5 10 10 0 17 -18 11 -39 -11 -13 -14 -26
-19 -37 -15 -16 6 -16 8 2 22 14 11 15 14 3 11 -9 -3 -16 1 -16 9 0 8 7 14 16
14 14 0 14 2 1 10 -12 8 -11 10 8 10 12 0 22 -6 22 -12z m3305 -69 c47 -48 54
-58 30 -46 -47 24 -73 46 -55 47 9 0 11 3 5 8 -14 10 -49 52 -44 52 3 0 31
-27 64 -61z m-5045 -9 c0 -5 -2 -10 -4 -10 -3 0 -8 5 -11 10 -3 6 -1 10 4 10
6 0 11 -4 11 -10z m1740 -10 c0 -5 -8 -11 -17 -11 -16 -1 -16 -2 -1 -6 9 -2
32 3 52 11 20 8 38 11 41 6 3 -5 -9 -13 -27 -18 -19 -5 -33 -15 -32 -23 1 -9
-10 -14 -28 -15 -20 -1 -25 2 -16 7 10 7 10 9 1 9 -16 0 -17 22 -1 38 15 15
28 16 28 2z m80 -30 c0 -12 -35 -31 -44 -23 -10 10 -7 25 3 18 5 -3 12 -1 16
5 8 13 25 13 25 0z m-977 -72 c8 7 18 7 27 2 13 -8 13 -10 0 -10 -20 0 -40
-52 -33 -82 11 -43 30 -56 81 -53 61 4 60 3 37 22 -19 15 -18 15 18 10 24 -4
42 -1 49 7 9 10 15 9 30 -6 13 -13 27 -17 46 -12 l27 6 -25 -21 c-14 -11 -21
-23 -17 -27 4 -4 7 -2 7 5 0 8 6 11 16 7 8 -3 12 -2 9 4 -3 5 4 8 15 7 11 -1
20 -5 20 -11 0 -5 11 3 24 18 l23 28 6 -23 c6 -22 7 -22 27 -4 12 11 20 13 20
6 0 -7 5 -9 11 -5 7 4 9 -2 7 -17 l-3 -24 -174 -3 c-119 -2 -178 1 -187 9 -10
8 -14 8 -14 0 0 -6 -14 -10 -35 -8 -26 1 -35 7 -35 20 0 15 3 16 23 6 21 -12
21 -11 5 8 -10 11 -18 25 -18 31 0 6 -5 14 -11 17 -6 4 -9 -2 -8 -17 5 -60 1
-70 -30 -63 -22 5 -32 2 -39 -11 -5 -9 -15 -14 -21 -10 -7 5 -8 13 -3 23 5 8
6 31 2 52 -3 20 -4 59 -1 86 l6 50 40 4 c22 1 42 5 45 7 2 3 8 -5 12 -17 6
-16 11 -19 21 -11z m99 1 c-12 -13 -18 -15 -23 -7 -10 16 9 38 26 32 11 -5 10
-9 -3 -25z m73 21 c-3 -5 -2 -10 4 -10 5 0 13 5 16 10 8 12 75 13 75 1 0 -5
-7 -14 -15 -21 -11 -9 -12 -17 -4 -32 8 -15 8 -23 -2 -32 -9 -8 -10 -8 -5 1 3
6 1 15 -5 18 -6 4 -8 18 -5 30 3 13 2 27 -4 30 -6 3 -7 -1 -4 -10 4 -10 2 -15
-7 -13 -8 2 -15 -7 -17 -19 -2 -17 2 -23 14 -23 16 0 16 -1 -1 -14 -22 -16
-50 1 -33 21 12 15 -8 56 -23 47 -14 -8 -28 -48 -20 -54 4 -3 1 -16 -6 -30
-10 -19 -13 -21 -13 -7 0 10 -4 15 -10 12 -5 -3 -10 -1 -10 4 0 6 8 11 18 11
14 0 15 2 2 10 -10 6 -11 10 -2 10 6 0 12 8 12 17 0 18 28 53 42 53 5 0 6 -4
3 -10z m145 1 c0 -5 -7 -12 -16 -15 -24 -9 -28 -7 -14 9 14 17 30 20 30 6z
m33 -25 c-10 -13 -19 -20 -21 -15 -4 10 19 38 31 39 4 0 0 -11 -10 -24z m77
14 c0 -5 -8 -7 -17 -4 -14 4 -13 1 5 -14 12 -11 22 -28 22 -37 0 -12 -6 -11
-27 9 -15 14 -31 22 -36 19 -5 -3 -2 -10 6 -15 10 -5 14 -16 11 -26 -5 -14 -4
-14 5 -2 5 8 14 11 18 6 4 -5 3 -11 -4 -13 -7 -2 -9 -12 -6 -21 3 -10 -1 -8
-11 6 -10 12 -14 27 -11 32 4 7 -3 8 -22 4 l-28 -7 23 25 c12 13 22 30 22 36
0 7 11 12 25 12 14 0 25 -4 25 -10z m-1450 -20 c13 -8 13 -10 -2 -10 -9 0 -20
5 -23 10 -8 13 5 13 25 0z m1310 -10 c0 -5 -2 -10 -4 -10 -3 0 -8 5 -11 10 -3
6 -1 10 4 10 6 0 11 -4 11 -10z m597 -27 c-2 -19 -9 -29 -22 -30 -15 -2 -16
-1 -5 5 20 9 22 42 3 42 -8 0 -11 -4 -8 -10 3 -5 1 -10 -4 -10 -6 0 -11 7 -11
15 0 9 9 15 24 15 21 0 24 -4 23 -27z m-531 -15 c4 4 3 0 -4 -9 -6 -9 -8 -20
-4 -25 4 -4 -1 -2 -10 5 -10 7 -18 20 -18 28 0 12 3 13 13 4 8 -6 18 -7 23 -3z
m-113 -38 c3 -11 1 -20 -4 -20 -5 0 -9 4 -9 9 0 5 -3 17 -7 27 -4 11 -3 15 4
11 6 -4 13 -16 16 -27z m4387 -74 c0 -3 -4 -8 -10 -11 -5 -3 -10 -1 -10 4 0 6
5 11 10 11 6 0 10 -2 10 -4z m294 -32 c7 -19 -2 -37 -15 -28 -5 3 -8 0 -7 -7
2 -6 -3 -14 -10 -16 -10 -4 -11 2 -6 24 7 25 6 27 -9 14 -15 -11 -17 -11 -17
2 0 28 54 37 64 11z m-331 -7 c3 -8 1 -20 -4 -28 -7 -11 -9 -10 -9 5 0 19 -1
19 -13 2 -9 -12 -22 -16 -38 -13 -22 4 -22 4 5 6 20 1 27 5 23 15 -3 8 -3 17
0 20 11 11 31 6 36 -7z m72 -7 c17 -19 17 -19 -14 -7 -32 12 -42 27 -18 27 8
0 22 -9 32 -20z m-3915 -52 c0 -4 -29 -8 -64 -8 -53 0 -65 -3 -69 -17 -3 -11
-4 -8 -4 7 1 24 4 25 69 26 37 0 68 -3 68 -8z m-497 -5 c-7 -2 -19 -2 -25 0
-7 3 -2 5 12 5 14 0 19 -2 13 -5z m321 -2 c3 -4 -6 -6 -19 -3 -14 2 -25 6 -25
8 0 8 39 4 44 -5z m-346 -54 c12 -3 10 -5 -5 -6 -19 -1 -23 4 -22 27 1 22 2
23 6 5 2 -12 12 -24 21 -26z m369 6 c-3 -3 -10 -2 -16 2 -7 4 -7 10 2 20 10
11 13 11 15 -2 2 -8 1 -17 -1 -20z m3889 -21 c-4 -3 -14 2 -24 12 -16 18 -16
18 6 6 13 -6 21 -14 18 -18z m-4321 7 c17 -8 16 -9 -7 -6 -15 2 -29 -1 -32 -7
-2 -6 -5 -3 -5 7 -1 19 13 21 44 6z m232 -31 c-3 -7 -5 -2 -5 12 0 14 2 19 5
13 2 -7 2 -19 0 -25z m-219 -23 c3 -3 0 -5 -6 -5 -8 0 -12 -20 -12 -55 0 -45
3 -55 18 -56 15 -1 15 -2 1 -6 -13 -3 -17 -19 -18 -74 l-1 -70 47 3 c48 3 48
3 54 43 l6 40 2 -47 c1 -54 9 -51 -119 -50 -120 1 -120 1 -114 17 4 8 2 15 -3
15 -11 0 -8 84 3 87 4 2 7 -17 5 -42 -2 -32 1 -45 11 -46 7 -1 27 -3 43 -5 52
-6 69 47 21 66 -20 8 -20 9 3 9 18 1 22 5 18 20 -3 12 1 22 11 26 8 3 12 8 9
12 -9 8 -59 -26 -52 -37 10 -16 -19 -16 -36 1 -9 9 -22 18 -29 21 -10 3 -11
12 -5 34 l9 29 4 -27 c2 -17 9 -28 19 -28 11 0 14 7 11 25 -3 14 -1 28 3 31
14 8 11 -50 -3 -64 -9 -9 -9 -12 0 -12 7 0 15 7 18 15 4 8 15 15 26 15 15 0
18 5 13 19 -3 11 -1 22 5 26 20 12 10 26 -11 15 -11 -7 -23 -9 -26 -6 -3 3 3
9 13 13 39 14 40 42 1 44 -21 0 -21 1 -2 8 20 8 53 6 63 -4z m49 -7 c-3 -8 -6
-5 -6 6 -1 11 2 17 5 13 3 -3 4 -12 1 -19z m-160 -4 c-3 -3 -12 -4 -19 -1 -8
3 -5 6 6 6 11 1 17 -2 13 -5z m4101 -10 c12 -8 28 -12 35 -8 6 4 9 4 5 -1 -4
-4 0 -14 10 -22 15 -13 15 -13 -7 -7 -13 3 -46 7 -72 7 -39 1 -46 3 -37 14 6
7 17 13 25 13 8 0 11 5 8 10 -9 15 8 12 33 -6z m-8761 0 c-3 -3 -12 -4 -19 -1
-8 3 -5 6 6 6 11 1 17 -2 13 -5z m93 -8 c0 -11 -19 -15 -25 -6 -3 5 1 10 9 10
9 0 16 -2 16 -4z m4553 -16 c-3 -11 -7 -20 -9 -20 -2 0 -4 9 -4 20 0 11 4 20
9 20 5 0 7 -9 4 -20z m47 12 c0 -5 -7 -9 -15 -9 -8 0 -12 4 -9 9 3 4 9 8 15 8
5 0 9 -4 9 -8z m155 -12 c-3 -5 -14 -10 -23 -9 -14 0 -13 2 3 9 27 11 27 11
20 0z m3825 0 c0 -5 -8 -10 -17 -10 -15 0 -16 2 -3 10 19 12 20 12 20 0z
m-3883 -6 c-3 -3 -12 -4 -19 -1 -8 3 -5 6 6 6 11 1 17 -2 13 -5z m14 -37 c-10
-9 -11 -8 -5 6 3 10 9 15 12 12 3 -3 0 -11 -7 -18z m34 -7 c3 -5 1 -10 -4 -10
-6 0 -11 5 -11 10 0 6 2 10 4 10 3 0 8 -4 11 -10z m-8 -42 c-9 -6 -8 -10 3
-18 13 -8 12 -10 -2 -10 -13 0 -18 8 -18 26 0 16 -4 23 -12 18 -7 -4 -8 -3 -4
4 5 9 12 8 26 0 14 -9 16 -14 7 -20z m4526 26 c9 -9 -19 -34 -37 -34 -19 0
-21 11 -4 28 13 13 31 16 41 6z m-9318 -24 c-3 -5 -11 -10 -16 -10 -6 0 -7 5
-4 10 3 6 11 10 16 10 6 0 7 -4 4 -10z m9405 -22 c0 -5 -7 -3 -15 6 -8 8 -15
18 -15 22 0 3 7 1 15 -6 8 -7 15 -17 15 -22z m-35 -8 c-3 -5 -18 -10 -33 -9
l-27 1 25 8 c35 11 42 11 35 0z m-4328 -16 c-3 -3 -12 -4 -19 -1 -8 3 -5 6 6
6 11 1 17 -2 13 -5z m-237 -8 c0 -11 -19 -15 -25 -6 -3 5 1 10 9 10 9 0 16 -2
16 -4z m3477 -2 c-3 -3 -12 -4 -19 -1 -8 3 -5 6 6 6 11 1 17 -2 13 -5z m-3629
-16 c-2 -7 3 -12 10 -10 19 3 14 -6 -9 -19 -13 -7 -19 -7 -15 -1 3 6 1 14 -5
18 -8 4 -7 9 2 15 18 11 19 11 17 -3z m4532 -28 c-18 -23 -69 -62 -123 -94
-95 -56 -157 -113 -196 -178 -13 -21 -26 -38 -30 -38 -16 0 -62 -77 -56 -93 5
-11 0 -16 -17 -19 -19 -2 -25 -12 -35 -58 l-13 -55 6 55 c3 30 10 58 16 61 6
4 7 12 4 18 -4 6 11 30 33 54 23 24 62 70 87 103 45 59 98 106 160 144 19 12
31 27 29 38 -1 9 0 11 2 5 3 -7 9 -13 14 -13 15 0 90 53 118 84 36 39 37 31 1
-14z m-8896 18 c-3 -5 -31 -8 -62 -7 -35 1 -84 -7 -126 -20 -71 -22 -102 -23
-44 -1 18 6 42 16 53 20 43 19 189 25 179 8z m46 8 c0 -3 -4 -8 -10 -11 -5 -3
-10 -1 -10 4 0 6 5 11 10 11 6 0 10 -2 10 -4z m8215 -6 c4 -6 16 -8 27 -4 20
6 114 -23 104 -33 -2 -3 -39 2 -81 11 -87 18 -190 21 -180 6 3 -5 1 -10 -4
-10 -14 0 -14 13 -1 26 13 13 127 16 135 4z m-3755 -14 c0 -8 -6 -16 -12 -19
-17 -6 -38 3 -38 15 0 6 6 6 14 -1 9 -7 17 -8 20 -2 3 5 0 12 -6 14 -8 3 -6 6
5 6 9 1 17 -5 17 -13z m3700 -31 c19 -7 28 -13 20 -13 -8 0 -31 6 -50 13 -19
7 -28 13 -20 13 8 0 31 -6 50 -13z m-8960 -15 c-16 -5 -19 -8 -8 -9 11 -1 15
-6 12 -16 -9 -21 -31 -19 -37 4 -6 25 0 31 32 30 l26 -1 -25 -8z m650 -10
c-34 -11 -60 -11 -35 0 11 5 29 8 40 8 16 0 15 -2 -5 -8z m8410 -5 c19 -7 28
-13 20 -13 -8 0 -31 6 -50 13 -19 7 -28 13 -20 13 8 0 31 -6 50 -13z m-3600
-5 c8 -5 11 -10 5 -10 -5 0 -17 5 -25 10 -8 5 -10 10 -5 10 6 0 17 -5 25 -10z
m-5297 -63 c37 -27 67 -51 67 -54 0 -3 -15 6 -32 19 -18 13 -51 37 -73 53 -22
16 -44 33 -50 38 -20 19 20 -6 88 -56z m412 53 c-27 -12 -43 -12 -25 0 8 5 22
9 30 9 10 0 8 -3 -5 -9z m4956 -7 c13 -16 12 -17 -3 -4 -17 13 -22 21 -14 21
2 0 10 -8 17 -17z m3170 4 c-7 -7 -14 -8 -21 -1 -6 6 -2 10 12 11 16 2 18 -1
9 -10z m-8181 -17 c-8 -5 -19 -10 -25 -10 -5 0 -3 5 5 10 8 5 20 10 25 10 6 0
3 -5 -5 -10z m-530 -5 c0 -2 -10 -9 -22 -15 -22 -11 -22 -10 -4 4 21 17 26 19
26 11z m870 1 c0 -3 -4 -8 -10 -11 -5 -3 -10 -1 -10 4 0 6 5 11 10 11 6 0 10
-2 10 -4z m3230 -15 c0 -5 -9 -7 -20 -4 -11 3 -20 7 -20 9 0 2 9 4 20 4 11 0
20 -4 20 -9z m333 2 c-7 -2 -19 -2 -25 0 -7 3 -2 5 12 5 14 0 19 -2 13 -5z
m4272 -3 c4 -6 -6 -10 -22 -9 -25 0 -26 1 -8 9 11 5 21 9 22 9 1 1 5 -3 8 -9z
m-7625 -10 c0 -5 -2 -10 -4 -10 -3 0 -8 5 -11 10 -3 6 -1 10 4 10 6 0 11 -4
11 -10z m8030 -14 c0 -23 -16 -27 -17 -5 -1 10 2 19 8 19 5 0 9 -6 9 -14z
m-9090 -15 c0 -5 -9 -7 -20 -4 -11 3 -20 7 -20 9 0 2 9 4 20 4 11 0 20 -4 20
-9z m4462 2 c-6 -2 -10 -8 -7 -13 3 -4 -2 -10 -10 -14 -8 -3 -17 -1 -20 4 -4
6 0 11 7 11 7 1 -3 5 -22 9 -33 7 -32 7 15 8 28 0 44 -2 37 -5z m5078 -2 c0
-11 -31 -24 -39 -16 -3 3 1 10 9 15 19 12 30 12 30 1z m-9059 -18 c13 -15 12
-15 -8 -4 -24 12 -29 21 -14 21 5 0 15 -7 22 -17z m3955 -21 c24 2 44 0 44 -4
0 -5 -22 -8 -50 -8 -46 0 -50 2 -49 23 1 18 2 19 6 4 4 -16 13 -18 49 -15z
m4697 21 c-7 -2 -21 -2 -30 0 -10 3 -4 5 12 5 17 0 24 -2 18 -5z m-8092 -65
c27 -8 39 -17 39 -30 0 -23 -3 -23 -50 7 -58 36 -54 43 11 23z m7539 -3 c-7
-8 -26 -15 -42 -15 -43 0 -82 -24 -103 -64 -11 -20 -25 -36 -32 -36 -14 0 47
86 80 112 13 11 40 18 66 18 37 0 42 -2 31 -15z m144 6 c19 -7 18 -8 -4 -14
-13 -3 -35 0 -49 8 l-26 14 30 0 c17 0 39 -4 49 -8z m240 -50 c-5 -5 -54 40
-54 50 0 3 13 -5 29 -20 16 -14 27 -28 25 -30z m26 55 c0 -11 -19 -15 -25 -6
-3 5 1 10 9 10 9 0 16 -2 16 -4z m-8100 -31 c-58 -31 -87 -32 -35 -1 22 13 49
24 60 25 13 0 3 -9 -25 -24z m4655 15 c-3 -5 -11 -10 -16 -10 -6 0 -7 5 -4 10
3 6 11 10 16 10 6 0 7 -4 4 -10z m3473 -11 c-10 -5 -18 -15 -18 -20 0 -6 5 -7
10 -4 6 3 10 1 10 -4 0 -15 -27 -14 -36 1 -7 11 21 38 40 38 6 0 3 -5 -6 -11z
m-8294 -15 c5 -14 4 -15 -9 -4 -17 14 -19 20 -6 20 5 0 12 -7 15 -16z m4796
-8 c0 -3 -4 -8 -10 -11 -5 -3 -10 -1 -10 4 0 6 5 11 10 11 6 0 10 -2 10 -4z
m-4370 -78 c0 -20 -17 -4 -38 35 l-23 42 30 -35 c17 -19 31 -38 31 -42z m15
64 c9 -6 19 -32 12 -32 -1 0 -10 9 -20 20 -16 20 -12 27 8 12z m7921 -24 c54
-23 78 -47 63 -62 -5 -6 -21 1 -41 21 -18 16 -44 37 -58 46 -33 23 -22 21 36
-5z m-2776 -8 c-8 -5 -17 -7 -19 -4 -3 3 1 9 9 14 8 5 17 7 19 4 3 -3 -1 -9
-9 -14z m2073 3 c-7 -2 -19 -2 -25 0 -7 3 -2 5 12 5 14 0 19 -2 13 -5z m152
-3 c3 -5 2 -10 -4 -10 -5 0 -13 5 -16 10 -3 6 -2 10 4 10 5 0 13 -4 16 -10z
m765 -4 c0 -3 -4 -8 -10 -11 -5 -3 -10 -1 -10 4 0 6 5 11 10 11 6 0 10 -2 10
-4z m-3760 -16 c0 -5 -4 -10 -10 -10 -5 0 -10 5 -10 10 0 6 5 10 10 10 6 0 10
-4 10 -10z m-25 -20 c3 -5 1 -10 -4 -10 -6 0 -11 5 -11 10 0 6 2 10 4 10 3 0
8 -4 11 -10z m-1744 -27 c-12 -20 -14 -14 -5 12 4 9 9 14 11 11 3 -2 0 -13 -6
-23z m5236 21 c-3 -3 -12 -4 -19 -1 -8 3 -5 6 6 6 11 1 17 -2 13 -5z m53 -10
c0 -8 -5 -12 -10 -9 -6 4 -8 11 -5 16 9 14 15 11 15 -7z m-507 -1 c-7 -2 -19
-2 -25 0 -7 3 -2 5 12 5 14 0 19 -2 13 -5z m438 -11 c-7 -2 -18 1 -23 6 -8 8
-4 9 13 5 13 -4 18 -8 10 -11z m-5193 -29 c-2 -10 6 -27 17 -38 12 -11 13 -14
3 -6 -16 13 -18 12 -19 -15 -1 -24 -3 -25 -6 -6 -2 12 -8 22 -12 22 -4 0 -8 7
-8 15 0 8 4 15 8 15 5 0 6 7 3 15 -4 8 -1 15 6 15 6 0 10 -8 8 -17z m5346 1
c10 -25 -1 -29 -14 -5 -6 12 -7 21 -1 21 5 0 12 -7 15 -16z m-3424 -2 c0 -5
-7 -9 -15 -9 -8 0 -12 4 -9 9 3 4 9 8 15 8 5 0 9 -4 9 -8z m-1973 -8 c-3 -3
-12 -4 -19 -1 -8 3 -5 6 6 6 11 1 17 -2 13 -5z m3 -33 c0 -6 -4 -13 -10 -16
-5 -3 -10 1 -10 9 0 9 5 16 10 16 6 0 10 -4 10 -9z m1965 -1 c3 -6 -1 -7 -9
-4 -18 7 -21 14 -7 14 6 0 13 -4 16 -10z m-2010 -19 c-3 -6 -11 -11 -17 -11
-6 0 -6 6 2 15 14 17 26 13 15 -4z m112 -23 c-3 -8 -6 -5 -6 6 -1 11 2 17 5
13 3 -3 4 -12 1 -19z m4548 -8 c-3 -5 2 -10 12 -10 15 0 16 -2 3 -10 -22 -14
-26 -12 -27 10 -1 11 3 20 8 20 6 0 7 -4 4 -10z m-2645 -12 c0 -4 -4 -8 -9 -8
-6 0 -12 4 -15 8 -3 5 1 9 9 9 8 0 15 -4 15 -9z m-40 -18 c0 -5 -5 -10 -11
-10 -5 0 -7 5 -4 10 3 6 8 10 11 10 2 0 4 -4 4 -10z m640 -14 c0 -3 -4 -8 -10
-11 -5 -3 -10 -1 -10 4 0 6 5 11 10 11 6 0 10 -2 10 -4z m2090 -47 c0 -17 -90
-81 -106 -75 -15 6 -15 8 2 28 36 40 104 71 104 47z m45 -19 c-3 -5 -1 -10 4
-10 6 0 11 5 11 10 0 6 6 10 13 10 19 -1 -79 -90 -99 -90 -15 0 -14 4 6 28 42
47 83 80 65 52z m-7237 -60 c34 -17 62 -35 62 -40 0 -14 -21 -12 -55 6 -16 9
-41 20 -55 25 -25 9 -25 9 3 -16 15 -14 24 -25 20 -25 -10 0 -123 70 -123 76
0 2 19 4 43 4 27 0 65 -11 105 -30z m7329 -10 c27 -8 26 -8 -9 -7 -21 0 -35 4
-32 9 3 4 0 8 -5 8 -6 0 -11 5 -11 11 0 8 4 8 14 0 8 -7 27 -16 43 -21z
m-7407 -56 c0 -2 -7 -4 -15 -4 -8 0 -15 4 -15 10 0 5 7 7 15 4 8 -4 15 -8 15
-10z m7463 -11 c-7 -2 -19 -2 -25 0 -7 3 -2 5 12 5 14 0 19 -2 13 -5z m-52
-99 l12 -47 15 29 c19 38 17 36 47 39 14 2 23 -1 19 -6 -3 -5 -7 -33 -9 -62
-3 -49 -2 -50 8 -20 15 40 27 52 27 27 0 -28 -38 -86 -52 -78 -7 4 -8 3 -4 -4
4 -7 2 -12 -4 -12 -6 0 -9 -4 -6 -8 8 -13 -21 -49 -44 -55 -17 -4 -20 -1 -20
21 1 29 -17 149 -25 170 -5 13 11 52 20 52 3 0 10 -21 16 -46z m-7491 -46 c0
-10 3 -9 9 1 5 8 11 9 15 3 9 -15 -18 -32 -42 -25 -22 5 -27 14 -15 26 11 12
33 8 33 -5z m-55 -20 c30 -27 50 -111 33 -142 -10 -19 -11 -19 -24 -1 -8 10
-14 15 -14 10 0 -15 -8 -1 -30 55 -24 60 -17 62 12 2 10 -20 16 -28 12 -17
-21 68 -31 115 -24 115 5 0 20 -10 35 -22z m7200 -18 c-6 -10 7 -14 33 -11 8
1 4 -7 -7 -18 -12 -12 -24 -21 -28 -21 -3 0 -3 3 0 6 3 4 2 14 -3 24 -5 10 -6
20 -3 24 10 9 15 7 8 -4z m175 6 c0 -3 -4 -8 -10 -11 -5 -3 -10 -1 -10 4 0 6
5 11 10 11 6 0 10 -2 10 -4z m-78 -40 c-15 -20 -21 -23 -26 -11 -3 8 4 21 16
29 30 21 34 12 10 -18z m519 -25 c46 -12 163 -59 149 -60 -3 -1 -34 8 -68 19
-35 11 -78 20 -96 20 -18 0 -41 7 -52 15 -24 18 -34 19 -34 1 0 -8 -4 -18 -10
-21 -6 -4 -7 1 -3 11 4 11 3 15 -5 10 -20 -12 -22 12 -2 37 l20 26 24 -23 c14
-12 48 -28 77 -35z m-421 45 c0 -3 -4 -8 -10 -11 -5 -3 -10 -1 -10 4 0 6 5 11
10 11 6 0 10 -2 10 -4z m-7439 -78 c11 -21 15 -38 9 -38 -5 0 -10 -7 -10 -16
0 -12 -6 -9 -22 11 -12 15 -35 36 -52 47 -31 20 -31 20 -4 14 25 -6 26 -4 23
25 -4 31 -4 31 16 13 12 -11 30 -36 40 -56z m-991 45 c0 -9 -3 -13 -7 -10 -3
4 -12 2 -20 -4 -16 -14 -17 3 -1 19 17 17 28 15 28 -5z m1107 -5 c-3 -8 -6 -5
-6 6 -1 11 2 17 5 13 3 -3 4 -12 1 -19z m226 -36 c20 -17 23 -56 5 -50 -7 3
-17 14 -23 26 -5 12 -18 25 -27 28 -10 3 -18 10 -18 15 0 13 40 1 63 -19z
m7382 8 c3 -5 1 -10 -4 -10 -6 0 -11 5 -11 10 0 6 2 10 4 10 3 0 8 -4 11 -10z
m-7857 -22 c10 -13 -1 -58 -14 -58 -3 0 -3 7 0 16 4 11 2 15 -7 11 -8 -3 -20
-1 -27 3 -11 7 -11 11 -1 24 16 19 35 20 49 4z m8579 -44 c-3 -3 -12 -4 -19
-1 -8 3 -5 6 6 6 11 1 17 -2 13 -5z m-9198 -130 c9 -8 -55 -2 -74 6 -13 6 -5
7 25 3 25 -3 47 -7 49 -9z m7981 -28 c0 -8 -60 -12 -72 -4 -8 4 4 8 30 8 23 0
42 -2 42 -4z m377 -92 c-3 -3 -12 -4 -19 -1 -8 3 -5 6 6 6 11 1 17 -2 13 -5z
m-31 -125 c-1 -12 5 -24 12 -26 7 -3 10 1 6 11 -9 23 13 20 26 -4 16 -31 -13
-37 -50 -10 -30 22 -36 31 -23 43 14 14 30 6 29 -14z m-8682 -29 c-5 -5 -10 3
-11 18 -1 22 0 24 9 8 6 -10 6 -22 2 -26z m8191 30 c3 -5 2 -10 -4 -10 -5 0
-13 5 -16 10 -3 6 -2 10 4 10 5 0 13 -4 16 -10z m-8218 -19 c0 -11 -5 -18 -9
-15 -4 3 -5 11 -1 19 7 21 12 19 10 -4z m1653 -33 c0 -5 4 -7 8 -4 5 3 21 -8
37 -24 15 -15 38 -31 51 -34 13 -4 28 -15 34 -27 11 -20 11 -20 -19 -5 -16 9
-43 16 -58 16 -22 0 -34 10 -59 48 -48 72 -50 76 -20 57 14 -10 26 -22 26 -27z
m6573 11 c-6 -6 -26 -14 -44 -19 -19 -4 -43 -11 -54 -15 -29 -11 -7 10 30 29
35 19 85 22 68 5z m562 -19 c-8 -26 -50 -44 -73 -30 -14 7 -10 9 16 10 25 0
35 6 44 25 13 30 23 26 13 -5z m-99 -11 c4 -8 1 -8 -14 0 -12 6 -24 16 -28 22
-4 8 -1 8 14 0 12 -6 24 -16 28 -22z m-7541 2 c3 -5 1 -12 -5 -16 -5 -3 -10 1
-10 9 0 18 6 21 15 7z m43 -31 c-23 -32 -28 -36 -28 -20 0 10 36 50 45 50 3 0
-4 -13 -17 -30z m7241 6 c-10 -9 -153 -78 -146 -70 18 20 113 73 131 73 11 1
17 -1 15 -3z m-7464 -207 c11 -17 0 -20 -21 -4 -17 13 -17 14 -2 15 9 0 20 -5
23 -11z m55 -6 c0 -3 -6 -11 -14 -19 -15 -14 -33 -3 -22 14 5 9 36 12 36 5z
m8025 -23 c3 -5 2 -17 -3 -26 -7 -13 -11 -12 -26 10 -16 25 -16 26 3 26 11 0
23 -4 26 -10z m-8093 -41 l-9 -24 -7 23 c-8 26 2 48 15 35 6 -6 6 -19 1 -34z
m9019 -266 c13 -16 12 -17 -3 -4 -17 13 -22 21 -14 21 2 0 10 -8 17 -17z"/>
<path d="M4195 8567 c1 -11 7 -23 13 -25 17 -5 15 35 -1 41 -9 3 -13 -2 -12
-16z"/>
<path d="M4094 8465 c10 -8 24 -11 29 -8 6 4 2 10 -9 14 -31 12 -40 9 -20 -6z"/>
<path d="M3910 8310 c0 -6 7 -10 15 -10 8 0 15 2 15 4 0 2 -7 6 -15 10 -8 3
-15 1 -15 -4z"/>
<path d="M6410 8044 c0 -8 5 -12 10 -9 6 3 10 10 10 16 0 5 -4 9 -10 9 -5 0
-10 -7 -10 -16z"/>
<path d="M3720 7990 c-12 -8 -10 -10 8 -10 13 0 20 4 17 10 -7 12 -6 12 -25 0z"/>
<path d="M6442 7988 c2 -6 13 -17 24 -24 17 -12 21 -11 33 9 11 18 11 20 0 10
-7 -7 -20 -13 -28 -12 -11 0 -12 2 -3 6 19 8 14 23 -9 23 -11 0 -19 -5 -17
-12z"/>
<path d="M3725 7960 c3 -5 10 -10 16 -10 5 0 9 5 9 10 0 6 -7 10 -16 10 -8 0
-12 -4 -9 -10z"/>
<path d="M3664 7896 c24 -19 36 -20 36 -4 0 6 -3 8 -6 5 -4 -3 -16 -2 -28 4
-20 10 -20 10 -2 -5z"/>
<path d="M4340 7886 c0 -2 15 -9 33 -15 29 -10 30 -9 13 4 -18 14 -46 20 -46
11z"/>
<path d="M3538 7823 c7 -3 16 -2 19 1 4 3 -2 6 -13 5 -11 0 -14 -3 -6 -6z"/>
<path d="M6683 7822 c-9 -6 -7 -11 6 -19 15 -10 19 -9 17 2 -3 20 -10 25 -23
17z"/>
<path d="M6652 7794 c9 -9 21 -15 27 -13 6 2 -2 10 -17 17 -25 11 -25 11 -10
-4z"/>
<path d="M3525 7770 c3 -5 10 -10 16 -10 5 0 9 5 9 10 0 6 -7 10 -16 10 -8 0
-12 -4 -9 -10z"/>
<path d="M6650 7760 c-8 -5 -12 -12 -9 -15 4 -3 12 1 19 10 14 17 11 19 -10 5z"/>
<path d="M3540 7736 c0 -2 7 -7 16 -10 8 -3 12 -2 9 4 -6 10 -25 14 -25 6z"/>
<path d="M6700 7703 c8 -3 18 -11 22 -17 4 -6 10 -7 15 -3 9 10 -16 27 -37 26
-13 -1 -13 -1 0 -6z"/>
<path d="M5652 7691 c2 -7 7 -12 11 -12 12 1 9 15 -3 20 -7 2 -11 -2 -8 -8z"/>
<path d="M4540 7671 c5 -11 15 -23 21 -27 6 -3 3 5 -6 20 -20 30 -30 35 -15 7z"/>
<path d="M5715 7680 c-3 -5 -2 -10 4 -10 5 0 13 5 16 10 3 6 2 10 -4 10 -5 0
-13 -4 -16 -10z"/>
<path d="M3455 7640 c-12 -4 -26 -15 -33 -23 -11 -13 -8 -15 30 -10 51 7 50 6
42 27 -7 18 -10 18 -39 6z"/>
<path d="M3510 7624 c0 -8 5 -12 10 -9 6 4 8 11 5 16 -9 14 -15 11 -15 -7z"/>
<path d="M5550 7619 c0 -5 5 -7 10 -4 6 3 10 8 10 11 0 2 -4 4 -10 4 -5 0 -10
-5 -10 -11z"/>
<path d="M4474 7601 c13 -21 44 -32 52 -19 4 7 3 10 -1 5 -5 -4 -19 0 -33 9
-13 9 -21 11 -18 5z"/>
<path d="M4580 7586 c0 -3 9 -10 20 -16 11 -6 20 -8 20 -6 0 3 -9 10 -20 16
-11 6 -20 8 -20 6z"/>
<path d="M3474 7489 c-3 -6 -1 -16 4 -21 13 -13 42 6 42 26 0 6 -5 4 -10 -4
-6 -10 -10 -11 -10 -2 0 15 -16 16 -26 1z"/>
<path d="M6716 7492 c-8 -14 21 -35 39 -28 8 3 15 10 15 16 0 15 -20 12 -20
-2 -1 -8 -6 -6 -14 5 -8 10 -17 14 -20 9z"/>
<path d="M4780 7485 c0 -5 5 -17 10 -25 5 -8 10 -10 10 -5 0 6 -5 17 -10 25
-5 8 -10 11 -10 5z"/>
<path d="M3385 7460 c3 -5 10 -10 16 -10 5 0 9 5 9 10 0 6 -7 10 -16 10 -8 0
-12 -4 -9 -10z"/>
<path d="M4800 7426 c0 -9 5 -16 10 -16 6 0 10 4 10 9 0 6 -4 13 -10 16 -5 3
-10 -1 -10 -9z"/>
<path d="M5386 7424 c-9 -22 -8 -24 9 -18 8 4 15 12 15 20 0 19 -16 18 -24 -2z"/>
<path d="M3430 7421 c0 -17 15 -19 28 -5 11 12 9 14 -8 14 -11 0 -20 -4 -20
-9z"/>
<path d="M6780 7421 c0 -6 5 -13 10 -16 6 -3 10 -1 10 5 0 7 8 9 20 5 11 -4
20 -2 20 4 0 6 -13 11 -30 11 -16 0 -30 -4 -30 -9z"/>
<path d="M3360 7400 c0 -5 6 -7 14 -4 11 4 13 0 9 -15 -4 -15 -1 -21 10 -21
25 0 31 20 11 35 -22 17 -44 19 -44 5z"/>
<path d="M4810 7379 c0 -34 16 -57 22 -32 3 11 -1 28 -8 38 -13 18 -14 17 -14
-6z"/>
<path d="M5383 7374 c-16 -24 -18 -25 -25 -8 -6 13 -6 9 -2 -11 7 -38 21 -53
20 -23 -1 13 4 22 10 21 7 -1 14 9 17 22 6 32 2 31 -20 -1z"/>
<path d="M3295 7380 c3 -5 0 -10 -8 -10 -8 0 -21 -8 -28 -17 -8 -9 -9 -14 -3
-10 6 3 16 -4 22 -17 9 -20 8 -23 -11 -22 -12 1 -22 -3 -22 -9 0 -5 5 -8 10
-6 6 2 19 3 29 3 11 -1 28 4 38 9 18 10 18 11 -4 30 l-23 20 25 -7 c14 -4 31
-9 39 -12 9 -3 12 0 9 9 -3 8 -10 14 -16 14 -6 0 -21 8 -32 18 -22 19 -35 22
-25 7z"/>
<path d="M3340 7380 c8 -5 20 -10 25 -10 6 0 3 5 -5 10 -8 5 -19 10 -25 10 -5
0 -3 -5 5 -10z"/>
<path d="M6781 7363 c7 -12 15 -20 18 -17 3 2 -3 12 -13 22 -17 16 -18 16 -5
-5z"/>
<path d="M5288 7306 c5 -16 13 -31 20 -34 17 -5 14 9 -8 38 l-19 25 7 -29z"/>
<path d="M5330 7321 c0 -5 7 -12 16 -15 14 -5 15 -4 4 9 -14 17 -20 19 -20 6z"/>
<path d="M6885 7320 c3 -5 11 -10 16 -10 6 0 7 5 4 10 -3 6 -11 10 -16 10 -6
0 -7 -4 -4 -10z"/>
<path d="M5015 7310 c3 -5 8 -10 11 -10 2 0 4 5 4 10 0 6 -5 10 -11 10 -5 0
-7 -4 -4 -10z"/>
<path d="M5230 7296 c0 -8 7 -21 15 -30 8 -8 13 -21 10 -29 -3 -7 1 -20 10
-27 8 -7 15 -18 15 -25 0 -7 7 -19 17 -26 15 -13 15 -12 1 16 -14 27 -24 61
-29 90 -4 35 -39 61 -39 31z"/>
<path d="M5181 7290 c0 -8 6 -24 14 -34 19 -25 19 -9 0 24 -8 14 -14 19 -14
10z"/>
<path d="M3391 7271 c13 -11 26 -17 28 -15 5 5 -30 33 -43 34 -4 0 2 -9 15
-19z"/>
<path d="M4981 7268 c-13 -21 -13 -22 2 -9 12 9 17 10 17 2 0 -7 5 -9 10 -6 6
3 10 14 10 23 0 13 -2 14 -9 3 -6 -9 -10 -10 -12 -2 -2 6 -10 1 -18 -11z"/>
<path d="M6805 7270 c4 -6 11 -8 16 -5 14 9 11 15 -7 15 -8 0 -12 -5 -9 -10z"/>
<path d="M3240 7250 c0 -24 25 -27 34 -4 3 8 2 12 -4 9 -6 -3 -10 -1 -10 4 0
6 -4 11 -10 11 -5 0 -10 -9 -10 -20z"/>
<path d="M3315 7250 c-17 -19 -17 -20 -1 -20 11 0 14 5 10 12 -5 7 -2 9 9 5 9
-3 18 0 21 9 8 21 -18 17 -39 -6z"/>
<path d="M3213 7239 c-2 -23 3 -25 10 -4 4 8 3 16 -1 19 -4 3 -9 -4 -9 -15z"/>
<path d="M3360 7240 c-6 -11 -19 -20 -30 -20 -29 0 -32 -15 -7 -36 25 -21 72
-30 82 -14 4 6 -1 7 -11 3 -12 -4 -15 -3 -10 5 4 7 1 12 -8 12 -9 0 -16 4 -16
9 0 4 12 6 26 3 24 -4 25 -3 15 17 -7 11 -17 21 -24 21 -7 0 -6 4 3 10 9 6 10
10 3 10 -7 0 -17 -9 -23 -20z m-10 -40 c0 -5 -5 -10 -11 -10 -5 0 -7 5 -4 10
3 6 8 10 11 10 2 0 4 -4 4 -10z"/>
<path d="M5147 7229 c4 -13 8 -18 11 -10 2 7 -1 18 -6 23 -8 8 -9 4 -5 -13z"/>
<path d="M3240 7209 c0 -5 5 -7 10 -4 6 3 10 8 10 11 0 2 -4 4 -10 4 -5 0 -10
-5 -10 -11z"/>
<path d="M4925 7200 c-10 -17 -15 -51 -6 -45 5 2 11 16 13 30 6 26 3 31 -7 15z"/>
<path d="M3277 7193 c-15 -15 -6 -31 17 -29 23 1 23 2 9 19 -18 20 -18 19 -26
10z"/>
<path d="M6831 7183 c6 -7 16 -10 22 -6 6 3 7 1 3 -5 -5 -9 -13 -9 -29 -1 -21
11 -21 10 -5 -7 15 -15 21 -16 43 -6 32 15 26 28 -15 34 -23 4 -27 2 -19 -9z"/>
<path d="M5062 7170 c0 -14 2 -19 5 -12 2 6 2 18 0 25 -3 6 -5 1 -5 -13z"/>
<path d="M3700 7166 c0 -2 7 -7 16 -10 8 -3 12 -2 9 4 -6 10 -25 14 -25 6z"/>
<path d="M3236 7144 c-9 -24 -7 -31 4 -14 7 11 10 11 10 2 0 -7 5 -10 10 -7 6
4 21 0 34 -9 21 -13 26 -13 45 1 38 26 -6 55 -46 30 -7 -4 -21 -3 -32 2 -15 8
-20 7 -25 -5z"/>
<path d="M5008 7130 c-14 -23 -34 -26 -41 -7 -4 9 -8 8 -16 -3 -17 -24 -14
-25 51 -21 50 3 58 5 39 12 -15 6 -21 14 -17 24 8 21 -2 18 -16 -5z"/>
<path d="M3810 7133 c0 -1 13 -9 29 -18 27 -13 29 -13 27 2 -2 10 -13 17 -29
17 -15 1 -27 1 -27 -1z"/>
<path d="M3915 7130 c3 -5 15 -10 26 -10 11 0 17 5 14 10 -3 6 -15 10 -26 10
-11 0 -17 -4 -14 -10z"/>
<path d="M4885 7130 c-3 -5 -3 -10 1 -10 4 0 0 -6 -10 -13 -15 -11 -14 -13 16
-15 21 -1 28 1 20 6 -7 5 -10 16 -6 25 7 18 -11 24 -21 7z"/>
<path d="M5274 7120 c0 -13 7 -25 14 -28 16 -5 15 10 -2 33 -13 18 -13 18 -12
-5z"/>
<path d="M6318 7133 c7 -3 16 -2 19 1 4 3 -2 6 -13 5 -11 0 -14 -3 -6 -6z"/>
<path d="M6387 7129 c7 -7 15 -10 18 -7 3 3 -2 9 -12 12 -14 6 -15 5 -6 -5z"/>
<path d="M5140 7120 c-8 -5 -5 -9 8 -12 11 -3 25 -2 32 2 8 5 5 9 -8 12 -11 3
-25 2 -32 -2z"/>
<path d="M5210 7118 c0 -12 7 -18 23 -17 15 0 17 2 7 6 -8 3 -18 11 -22 17 -5
7 -8 4 -8 -6z"/>
<path d="M6275 7120 c3 -5 8 -10 11 -10 2 0 4 5 4 10 0 6 -5 10 -11 10 -5 0
-7 -4 -4 -10z"/>
<path d="M3059 7120 c0 -3 -2 -12 -4 -22 -2 -10 5 -18 18 -22 31 -8 34 2 9 27
-12 12 -22 19 -23 17z"/>
<path d="M5078 7113 c7 -3 16 -2 19 1 4 3 -2 6 -13 5 -11 0 -14 -3 -6 -6z"/>
<path d="M6337 7113 c-4 -3 -7 -11 -7 -17 0 -6 5 -5 12 2 6 6 9 14 7 17 -3 3
-9 2 -12 -2z"/>
<path d="M3648 7098 c5 -5 16 -8 23 -6 8 3 3 7 -10 11 -17 4 -21 3 -13 -5z"/>
<path d="M3898 7093 c7 -3 16 -2 19 1 4 3 -2 6 -13 5 -11 0 -14 -3 -6 -6z"/>
<path d="M5373 7083 c9 -2 17 -9 17 -14 0 -6 -4 -7 -10 -4 -14 9 -12 -11 3
-23 9 -7 20 -4 39 13 31 26 21 36 -35 34 -18 -1 -24 -3 -14 -6z"/>
<path d="M6326 7055 c4 -8 15 -15 25 -15 20 0 60 -19 70 -33 4 -5 19 -2 35 6
l29 15 -28 7 c-15 4 -36 5 -47 2 -11 -3 -20 -2 -20 2 0 8 -45 31 -60 31 -5 0
-7 -7 -4 -15z"/>
<path d="M3055 7050 c-3 -5 3 -10 15 -10 12 0 18 5 15 10 -3 6 -10 10 -15 10
-5 0 -12 -4 -15 -10z"/>
<path d="M6830 7026 c0 -2 7 -7 16 -10 8 -3 12 -2 9 4 -6 10 -25 14 -25 6z"/>
<path d="M3665 7010 c3 -5 11 -10 16 -10 6 0 7 5 4 10 -3 6 -11 10 -16 10 -6
0 -7 -4 -4 -10z"/>
<path d="M3510 6980 c0 -6 7 -10 15 -10 8 0 15 2 15 4 0 2 -7 6 -15 10 -8 3
-15 1 -15 -4z"/>
<path d="M6374 6982 c5 -9 64 -7 73 2 4 3 -13 6 -36 6 -23 0 -40 -4 -37 -8z"/>
<path d="M6506 6981 c-20 -8 -20 -8 0 -13 23 -6 44 0 44 13 0 11 -17 11 -44 0z"/>
<path d="M6710 6975 c-8 -9 -8 -15 -2 -15 18 0 42 12 42 21 0 14 -26 10 -40
-6z"/>
<path d="M3650 6970 c0 -5 5 -10 10 -10 6 0 10 5 10 10 0 6 -4 10 -10 10 -5 0
-10 -4 -10 -10z"/>
<path d="M6615 6970 c-3 -5 -1 -10 4 -10 6 0 11 5 11 10 0 6 -2 10 -4 10 -3 0
-8 -4 -11 -10z"/>
<path d="M6635 6950 c-7 -11 22 -26 32 -16 4 3 -1 6 -11 6 -9 0 -14 5 -11 10
3 6 4 10 1 10 -3 0 -8 -5 -11 -10z"/>
<path d="M3477 6929 c7 -7 15 -10 18 -7 3 3 -2 9 -12 12 -14 6 -15 5 -6 -5z"/>
<path d="M2969 6901 c-20 -16 -22 -22 -11 -33 7 -7 13 -8 12 -3 -5 22 1 35 14
35 8 0 18 5 21 10 10 17 -11 11 -36 -9z"/>
<path d="M3495 6899 c-11 -16 -1 -19 13 -3 7 8 8 14 3 14 -5 0 -13 -5 -16 -11z"/>
<path d="M6623 6880 c-1 -10 5 -21 13 -24 8 -3 14 -1 14 5 0 6 6 9 13 6 7 -3
19 4 25 14 13 21 3 26 -15 8 -7 -7 -17 -8 -30 -1 -15 9 -19 7 -20 -8z"/>
<path d="M6745 6890 c3 -5 8 -10 11 -10 2 0 4 5 4 10 0 6 -5 10 -11 10 -5 0
-7 -4 -4 -10z"/>
<path d="M3561 6864 c0 -11 3 -14 6 -6 3 7 2 16 -1 19 -3 4 -6 -2 -5 -13z"/>
<path d="M6780 6861 c0 -5 11 -16 25 -25 14 -9 25 -15 25 -13 0 2 -11 13 -25
25 -14 12 -25 18 -25 13z"/>
<path d="M3441 6851 c-8 -6 -9 -11 -3 -15 6 -3 14 -1 17 5 9 14 2 20 -14 10z"/>
<path d="M3502 6838 c-6 -6 -12 -18 -12 -25 0 -20 25 -15 46 9 16 18 17 21 2
15 -9 -3 -18 -1 -20 4 -2 6 -8 5 -16 -3z m18 -18 c0 -5 -5 -10 -11 -10 -5 0
-7 5 -4 10 3 6 8 10 11 10 2 0 4 -4 4 -10z"/>
<path d="M6666 6839 c3 -5 9 -7 13 -4 5 2 16 -4 26 -15 10 -11 24 -16 33 -13
10 5 13 3 8 -6 -5 -7 -17 -10 -28 -8 -11 3 -17 3 -14 0 3 -4 1 -11 -4 -18 -7
-8 1 -15 28 -23 l37 -11 -25 19 c-24 19 -24 20 -4 20 24 0 28 27 7 52 -15 17
-88 23 -77 7z"/>
<path d="M3386 6824 c-9 -23 -8 -23 18 -11 16 8 21 14 13 19 -18 11 -24 10
-31 -8z"/>
<path d="M6845 6830 c-9 -15 -1 -23 21 -18 15 3 16 4 1 16 -11 9 -17 10 -22 2z"/>
<path d="M2934 6786 c-3 -9 -10 -13 -15 -10 -5 3 -9 -2 -9 -10 0 -9 0 -19 0
-23 0 -12 25 -9 26 2 0 6 4 18 9 28 4 10 5 21 1 24 -3 3 -8 -2 -12 -11z"/>
<path d="M3486 6781 c-7 -10 35 -94 50 -98 6 -2 10 9 10 25 0 17 -5 29 -13 29
-9 0 -10 -4 -3 -11 5 -5 10 -15 10 -20 -1 -16 -40 34 -40 50 0 8 5 14 10 14 6
0 10 5 10 10 0 12 -27 13 -34 1z"/>
<path d="M6705 6726 c34 -28 41 -27 25 3 -6 12 -21 21 -33 21 -21 0 -20 -2 8
-24z"/>
<path d="M2985 6700 c-3 -5 1 -10 10 -10 9 0 13 5 10 10 -3 6 -8 10 -10 10 -2
0 -7 -4 -10 -10z"/>
<path d="M3425 6691 c-3 -5 -1 -12 5 -16 5 -3 10 1 10 9 0 18 -6 21 -15 7z"/>
<path d="M2856 6682 c-4 -7 -4 -12 1 -12 4 0 2 -4 -6 -9 -12 -8 -12 -13 -3
-24 10 -12 9 -16 -3 -21 -20 -7 -19 -32 2 -40 11 -4 22 -1 29 8 15 21 22 20
26 -1 3 -10 5 1 6 25 0 23 -3 42 -9 42 -5 0 -9 7 -9 16 0 8 -4 13 -9 10 -5 -4
-11 -1 -13 6 -3 9 -6 9 -12 0z"/>
<path d="M2990 6670 c0 -5 5 -10 11 -10 5 0 7 5 4 10 -3 6 -8 10 -11 10 -2 0
-4 -4 -4 -10z"/>
<path d="M3450 6666 c0 -2 7 -9 15 -16 12 -10 15 -10 15 4 0 9 -7 16 -15 16
-8 0 -15 -2 -15 -4z"/>
<path d="M3495 6650 c-9 -15 23 -19 41 -6 16 12 15 14 -9 14 -15 0 -30 -4 -32
-8z"/>
<path d="M3537 6623 c-4 -3 -7 -14 -7 -24 0 -21 50 -36 61 -18 12 20 0 30 -29
23 -26 -5 -26 -5 -8 10 16 13 16 16 5 16 -9 0 -19 -3 -22 -7z"/>
<path d="M2990 6489 c0 -5 5 -7 10 -4 6 3 10 8 10 11 0 2 -4 4 -10 4 -5 0 -10
-5 -10 -11z"/>
<path d="M2533 6128 c-19 -9 -32 -28 -20 -28 8 0 67 32 67 36 0 7 -24 3 -47
-8z"/>
<path d="M2695 6080 c-3 -6 1 -13 10 -16 19 -8 30 0 20 15 -8 14 -22 14 -30 1z"/>
<path d="M7220 6932 c0 -9 13 -17 33 -21 4 0 7 2 7 7 0 4 -3 7 -7 7 -5 0 -14
4 -20 8 -7 5 -13 4 -13 -1z"/>
<path d="M7270 6864 c0 -17 17 -36 24 -26 3 5 -1 15 -9 22 -8 7 -15 9 -15 4z"/>
<path d="M7235 6800 c-3 -5 -2 -10 4 -10 5 0 13 5 16 10 3 6 2 10 -4 10 -5 0
-13 -4 -16 -10z"/>
<path d="M7255 6770 c3 -5 8 -10 11 -10 2 0 4 5 4 10 0 6 -5 10 -11 10 -5 0
-7 -4 -4 -10z"/>
<path d="M7220 6710 c8 -5 20 -10 25 -10 6 0 3 5 -5 10 -8 5 -19 10 -25 10 -5
0 -3 -5 5 -10z"/>
<path d="M7414 6709 c-3 -6 -1 -16 4 -21 8 -8 11 -5 9 11 -1 24 -3 25 -13 10z"/>
<path d="M7195 6691 c-3 -5 4 -13 16 -16 28 -9 36 1 10 14 -12 7 -22 7 -26 2z"/>
<path d="M7274 6685 c3 -21 16 -31 16 -12 0 9 -4 18 -9 21 -5 4 -8 -1 -7 -9z"/>
<path d="M7316 6661 c-3 -5 1 -11 9 -15 9 -3 15 0 15 9 0 16 -16 20 -24 6z"/>
<path d="M7443 6501 c3 -31 27 -41 27 -11 0 12 -4 19 -9 16 -5 -4 -12 0 -15 6
-3 7 -4 2 -3 -11z"/>
<path d="M7608 6173 c7 -3 16 -2 19 1 4 3 -2 6 -13 5 -11 0 -14 -3 -6 -6z"/>
<path d="M7525 6070 c-3 -5 -2 -10 4 -10 5 0 13 5 16 10 3 6 2 10 -4 10 -5 0
-13 -4 -16 -10z"/>
<path d="M4922 6945 c-22 -21 -22 -23 -6 -29 10 -4 15 -4 11 0 -4 4 0 16 10
26 24 27 12 29 -15 3z"/>
<path d="M5290 6960 c0 -5 5 -10 10 -10 6 0 10 5 10 10 0 6 -4 10 -10 10 -5 0
-10 -4 -10 -10z"/>
<path d="M4961 6946 c-7 -8 -8 -17 -3 -20 6 -3 12 3 15 14 6 24 4 25 -12 6z"/>
<path d="M5190 6926 c0 -2 8 -10 18 -17 15 -13 16 -12 3 4 -13 16 -21 21 -21
13z"/>
<path d="M5359 6803 c-13 -16 -12 -17 4 -4 9 7 17 15 17 17 0 8 -8 3 -21 -13z"/>
<path d="M5280 6775 c0 -8 4 -15 10 -15 5 0 7 7 4 15 -4 8 -8 15 -10 15 -2 0
-4 -7 -4 -15z"/>
<path d="M4610 6226 c0 -2 9 -6 20 -9 11 -3 18 -1 14 4 -5 9 -34 13 -34 5z"/>
<path d="M5270 6210 c6 -11 13 -20 16 -20 2 0 0 9 -6 20 -6 11 -13 20 -16 20
-2 0 0 -9 6 -20z"/>
<path d="M4910 6175 c-8 -9 -8 -15 -2 -15 12 0 26 19 19 26 -2 2 -10 -2 -17
-11z"/>
<path d="M5250 6172 c0 -11 27 -42 37 -42 3 0 -2 10 -13 23 -10 12 -20 24 -21
26 -2 2 -3 -1 -3 -7z"/>
<path d="M4849 6153 c-13 -16 -12 -17 4 -4 9 7 17 15 17 17 0 8 -8 3 -21 -13z"/>
<path d="M4919 6143 c-13 -16 -12 -17 4 -4 9 7 17 15 17 17 0 8 -8 3 -21 -13z"/>
<path d="M4611 5984 c0 -11 3 -14 6 -6 3 7 2 16 -1 19 -3 4 -6 -2 -5 -13z"/>
<path d="M4626 5952 c-3 -5 1 -9 9 -9 8 0 12 4 9 9 -3 4 -7 8 -9 8 -2 0 -6 -4
-9 -8z"/>
<path d="M5665 5800 c3 -5 8 -10 11 -10 2 0 4 5 4 10 0 6 -5 10 -11 10 -5 0
-7 -4 -4 -10z"/>
<path d="M2510 5540 c0 -6 7 -10 15 -10 8 0 15 2 15 4 0 2 -7 6 -15 10 -8 3
-15 1 -15 -4z"/>
<path d="M2453 5517 c3 -9 1 -18 -6 -21 -7 -2 -4 -5 6 -5 19 -1 23 24 5 35 -7
5 -9 2 -5 -9z"/>
<path d="M2510 5516 c0 -2 7 -9 15 -16 9 -7 15 -8 15 -2 0 5 -7 12 -15 16 -8
3 -15 4 -15 2z"/>
<path d="M2575 5510 c3 -5 8 -10 11 -10 2 0 4 5 4 10 0 6 -5 10 -11 10 -5 0
-7 -4 -4 -10z"/>
<path d="M2510 5460 c-8 -5 -11 -12 -7 -16 4 -4 15 0 24 9 18 18 8 23 -17 7z"/>
<path d="M2515 5410 c3 -5 11 -10 16 -10 6 0 7 5 4 10 -3 6 -11 10 -16 10 -6
0 -7 -4 -4 -10z"/>
<path d="M2365 5330 c-3 -5 1 -10 10 -10 9 0 13 5 10 10 -3 6 -8 10 -10 10 -2
0 -7 -4 -10 -10z"/>
<path d="M1990 5309 c0 -5 5 -7 10 -4 6 3 10 8 10 11 0 2 -4 4 -10 4 -5 0 -10
-5 -10 -11z"/>
<path d="M2010 5190 c0 -5 5 -10 11 -10 5 0 7 5 4 10 -3 6 -8 10 -11 10 -2 0
-4 -4 -4 -10z"/>
<path d="M1932 5163 c-5 -10 -10 -43 -11 -73 -1 -48 1 -56 21 -65 13 -6 22
-18 22 -27 -1 -13 5 -17 22 -16 25 2 27 19 10 60 -9 21 -41 35 -33 14 9 -22
-5 -28 -19 -8 -16 21 -17 32 -4 52 9 13 11 13 20 0 7 -11 12 -12 20 -4 9 9 8
20 -4 42 -21 40 -33 47 -44 25z m68 -137 c0 -11 -19 -15 -25 -6 -3 5 1 10 9
10 9 0 16 -2 16 -4z"/>
<path d="M2170 5129 c0 -5 5 -7 10 -4 6 3 10 8 10 11 0 2 -4 4 -10 4 -5 0 -10
-5 -10 -11z"/>
<path d="M1822 5116 c7 -8 15 -12 17 -11 5 6 -10 25 -20 25 -5 0 -4 -6 3 -14z"/>
<path d="M1877 5095 c-4 -8 -3 -16 1 -19 4 -3 9 4 9 15 2 23 -3 25 -10 4z"/>
<path d="M2020 5060 c0 -13 7 -20 20 -20 11 0 20 4 20 10 0 5 -9 14 -20 20
-17 9 -20 8 -20 -10z"/>
<path d="M1861 5033 c7 -10 15 -20 16 -22 2 -2 3 3 3 11 0 9 -7 19 -16 22 -15
6 -15 4 -3 -11z"/>
<path d="M2137 5012 c-16 -17 -24 -62 -12 -62 3 0 15 9 27 20 16 15 18 22 10
33 -7 8 -9 17 -5 20 3 4 4 7 1 7 -3 0 -12 -8 -21 -18z"/>
<path d="M7660 5690 c0 -5 5 -10 11 -10 5 0 7 5 4 10 -3 6 -8 10 -11 10 -2 0
-4 -4 -4 -10z"/>
<path d="M7690 5671 c0 -5 5 -13 10 -16 6 -3 10 -2 10 4 0 5 -4 13 -10 16 -5
3 -10 2 -10 -4z"/>
<path d="M7692 5598 c-19 -19 -14 -30 8 -18 11 6 20 15 20 20 0 14 -14 12 -28
-2z"/>
<path d="M7763 5519 c-16 -16 -17 -36 -1 -45 6 -4 8 -3 4 4 -3 5 -1 12 5 14 6
2 10 12 8 21 -3 15 -6 16 -16 6z"/>
<path d="M7695 5512 c2 -2 -5 -12 -17 -22 -30 -24 -14 -45 17 -23 27 20 33 50
10 50 -8 0 -13 -2 -10 -5z"/>
<path d="M8040 5433 c0 -5 10 -18 23 -29 l22 -19 -20 25 c-11 14 -21 27 -22
29 -2 2 -3 0 -3 -6z"/>
<path d="M7840 5326 c0 -9 7 -16 16 -16 17 0 14 22 -4 28 -7 2 -12 -3 -12 -12z"/>
<path d="M8271 5190 c0 -8 4 -22 9 -30 12 -18 12 -2 0 25 -6 13 -9 15 -9 5z"/>
<path d="M8326 5172 c-6 -9 -2 -39 5 -47 3 -2 5 9 5 25 0 31 -2 35 -10 22z"/>
<path d="M8046 5133 c-4 -9 -3 -20 2 -25 6 -6 10 1 10 16 0 30 -3 32 -12 9z"/>
<path d="M8288 5120 c-8 -19 -12 -37 -9 -40 11 -9 6 -35 -7 -32 -7 1 -12 -2
-12 -8 0 -5 8 -10 18 -10 25 0 47 65 34 100 l-10 25 -14 -35z"/>
<path d="M8190 5095 c0 -8 2 -15 4 -15 2 0 6 7 10 15 3 8 1 15 -4 15 -6 0 -10
-7 -10 -15z"/>
<path d="M8360 5076 c0 -3 11 -17 25 -32 28 -31 33 -25 9 11 -14 22 -34 34
-34 21z"/>
<path d="M8516 5071 c-4 -5 1 -8 9 -7 21 3 31 16 12 16 -9 0 -18 -4 -21 -9z"/>
<path d="M8230 5060 c0 -5 5 -10 10 -10 6 0 10 5 10 10 0 6 -4 10 -10 10 -5 0
-10 -4 -10 -10z"/>
<path d="M8077 5030 c3 -11 7 -20 9 -20 2 0 4 9 4 20 0 11 -4 20 -9 20 -5 0
-7 -9 -4 -20z"/>
<path d="M8183 5035 c-3 -9 -3 -18 0 -21 9 -9 27 6 27 22 0 19 -19 18 -27 -1z"/>
<path d="M8157 5013 c-10 -9 -9 -23 1 -23 5 0 9 7 9 15 0 17 -1 18 -10 8z"/>
<path d="M8156 4751 c-4 -5 -2 -12 3 -15 5 -4 12 -2 15 3 4 5 2 12 -3 15 -5 4
-12 2 -15 -3z"/>
<path d="M8815 4351 c-3 -5 3 -16 13 -23 10 -7 26 -24 35 -38 13 -19 17 -21
17 -7 0 9 -8 25 -18 35 -10 10 -16 24 -14 30 4 14 -24 16 -33 3z"/>
<path d="M1350 4355 c-10 -12 -10 -15 3 -15 8 0 17 7 21 15 3 8 2 15 -3 15 -5
0 -14 -7 -21 -15z"/>
<path d="M1320 4293 c0 -15 2 -16 10 -3 8 13 10 12 10 -3 0 -10 5 -15 10 -12
18 11 11 35 -10 35 -12 0 -20 -7 -20 -17z"/>
<path d="M1096 4031 c-20 -8 -20 -8 0 -13 24 -6 46 1 38 13 -6 10 -12 10 -38
0z"/>
<path d="M1095 3911 c-6 -11 9 -23 19 -14 9 9 7 23 -3 23 -6 0 -12 -4 -16 -9z"/>
<path d="M1020 3853 c0 -24 2 -43 4 -43 8 0 12 60 4 72 -4 8 -8 -4 -8 -29z"/>
<path d="M1087 3861 c-4 -17 -3 -21 5 -13 5 5 8 16 6 23 -3 8 -7 3 -11 -10z"/>
<path d="M1156 3853 c-6 -14 -5 -15 5 -6 7 7 10 15 7 18 -3 3 -9 -2 -12 -12z"/>
<path d="M1051 3834 c0 -11 3 -14 6 -6 3 7 2 16 -1 19 -3 4 -6 -2 -5 -13z"/>
<path d="M1121 3796 c-16 -19 -11 -29 8 -17 7 5 12 14 9 21 -3 9 -8 7 -17 -4z"/>
<path d="M9056 3927 c3 -10 9 -15 12 -12 3 3 0 11 -7 18 -10 9 -11 8 -5 -6z"/>
<path d="M9089 3903 c6 -12 16 -25 21 -28 17 -11 11 5 -11 28 l-21 22 11 -22z"/>
<path d="M9181 3874 c0 -11 3 -14 6 -6 3 7 2 16 -1 19 -3 4 -6 -2 -5 -13z"/>
<path d="M9100 3855 c0 -2 10 -10 23 -16 20 -11 21 -11 8 4 -13 16 -31 23 -31
12z"/>
<path d="M9150 3831 c0 -5 7 -12 16 -15 14 -5 15 -4 4 9 -14 17 -20 19 -20 6z"/>
<path d="M3194 3758 l-29 -33 33 29 c30 28 37 36 29 36 -2 0 -16 -15 -33 -32z"/>
<path d="M6977 3795 c-4 -8 -2 -17 3 -20 6 -4 10 3 10 14 0 25 -6 27 -13 6z"/>
<path d="M7040 3805 c0 -6 5 -16 12 -23 9 -9 8 -12 -5 -12 -22 0 -17 -22 8
-37 51 -31 61 0 15 49 -16 18 -30 28 -30 23z m40 -55 c0 -5 -2 -10 -4 -10 -3
0 -8 5 -11 10 -3 6 -1 10 4 10 6 0 11 -4 11 -10z"/>
<path d="M6240 2995 c7 -9 15 -13 17 -11 7 7 -7 26 -19 26 -6 0 -6 -6 2 -15z"/>
<path d="M6377 2950 c6 -22 18 -26 29 -8 4 7 3 8 -4 4 -7 -4 -12 -1 -12 8 0 9
-4 16 -9 16 -5 0 -7 -9 -4 -20z"/>
<path d="M6320 2944 c0 -13 18 -39 24 -34 2 3 -2 14 -10 24 -8 11 -14 16 -14
10z"/>
<path d="M6283 2906 c0 -11 5 -13 19 -5 10 5 18 12 18 14 0 3 -8 5 -18 5 -10
0 -19 -7 -19 -14z"/>
<path d="M6360 2909 c0 -5 5 -7 10 -4 6 3 10 8 10 11 0 2 -4 4 -10 4 -5 0 -10
-5 -10 -11z"/>
<path d="M6396 2911 c-3 -5 0 -13 7 -19 10 -8 13 -6 13 9 0 20 -11 25 -20 10z"/>
<path d="M5230 2830 c12 -8 11 -10 -7 -10 -18 0 -23 -6 -23 -25 0 -29 8 -32
26 -7 12 16 13 16 14 0 0 -9 -9 -19 -19 -23 -40 -12 -36 -65 5 -65 22 0 24 2
13 22 -10 18 -8 24 9 38 22 18 32 44 18 47 -5 0 -13 8 -18 17 -5 9 -14 16 -21
16 -7 0 -6 -4 3 -10z"/>
<path d="M5485 2680 c3 -5 8 -10 11 -10 2 0 4 5 4 10 0 6 -5 10 -11 10 -5 0
-7 -4 -4 -10z"/>
</g>
</svg>
